G75*
%MOIN*%
%OFA0B0*%
%FSLAX25Y25*%
%IPPOS*%
%LPD*%
%AMOC8*
5,1,8,0,0,1.08239X$1,22.5*
%
%ADD10C,0.00000*%
%ADD11R,0.10000X0.06000*%
%ADD12R,0.06000X0.10000*%
%ADD13R,0.03800X0.03000*%
%ADD14R,0.06700X0.04500*%
%ADD15R,0.07874X0.07874*%
%ADD16R,0.08800X0.04800*%
%ADD17R,0.08661X0.14173*%
%ADD18R,0.04331X0.03937*%
%ADD19R,0.03937X0.04331*%
%ADD20C,0.04362*%
%ADD21OC8,0.06600*%
%ADD22R,0.07800X0.02200*%
%ADD23C,0.05740*%
%ADD24C,0.07400*%
%ADD25C,0.01600*%
%ADD26C,0.03562*%
%ADD27C,0.02400*%
%ADD28C,0.01200*%
D10*
X0002200Y0012366D02*
X0002200Y0173783D01*
X0136255Y0173980D01*
X0136255Y0012563D01*
X0002200Y0012366D01*
X0018341Y0041618D02*
X0018343Y0041752D01*
X0018349Y0041886D01*
X0018359Y0042020D01*
X0018373Y0042154D01*
X0018391Y0042287D01*
X0018412Y0042419D01*
X0018438Y0042551D01*
X0018468Y0042682D01*
X0018501Y0042812D01*
X0018538Y0042940D01*
X0018580Y0043068D01*
X0018624Y0043195D01*
X0018673Y0043320D01*
X0018725Y0043443D01*
X0018781Y0043565D01*
X0018841Y0043686D01*
X0018904Y0043804D01*
X0018970Y0043921D01*
X0019040Y0044035D01*
X0019113Y0044148D01*
X0019190Y0044258D01*
X0019270Y0044366D01*
X0019353Y0044471D01*
X0019439Y0044574D01*
X0019528Y0044674D01*
X0019620Y0044772D01*
X0019715Y0044867D01*
X0019813Y0044959D01*
X0019913Y0045048D01*
X0020016Y0045134D01*
X0020121Y0045217D01*
X0020229Y0045297D01*
X0020339Y0045374D01*
X0020452Y0045447D01*
X0020566Y0045517D01*
X0020683Y0045583D01*
X0020801Y0045646D01*
X0020922Y0045706D01*
X0021044Y0045762D01*
X0021167Y0045814D01*
X0021292Y0045863D01*
X0021419Y0045907D01*
X0021547Y0045949D01*
X0021675Y0045986D01*
X0021805Y0046019D01*
X0021936Y0046049D01*
X0022068Y0046075D01*
X0022200Y0046096D01*
X0022333Y0046114D01*
X0022467Y0046128D01*
X0022601Y0046138D01*
X0022735Y0046144D01*
X0022869Y0046146D01*
X0023003Y0046144D01*
X0023137Y0046138D01*
X0023271Y0046128D01*
X0023405Y0046114D01*
X0023538Y0046096D01*
X0023670Y0046075D01*
X0023802Y0046049D01*
X0023933Y0046019D01*
X0024063Y0045986D01*
X0024191Y0045949D01*
X0024319Y0045907D01*
X0024446Y0045863D01*
X0024571Y0045814D01*
X0024694Y0045762D01*
X0024816Y0045706D01*
X0024937Y0045646D01*
X0025055Y0045583D01*
X0025172Y0045517D01*
X0025286Y0045447D01*
X0025399Y0045374D01*
X0025509Y0045297D01*
X0025617Y0045217D01*
X0025722Y0045134D01*
X0025825Y0045048D01*
X0025925Y0044959D01*
X0026023Y0044867D01*
X0026118Y0044772D01*
X0026210Y0044674D01*
X0026299Y0044574D01*
X0026385Y0044471D01*
X0026468Y0044366D01*
X0026548Y0044258D01*
X0026625Y0044148D01*
X0026698Y0044035D01*
X0026768Y0043921D01*
X0026834Y0043804D01*
X0026897Y0043686D01*
X0026957Y0043565D01*
X0027013Y0043443D01*
X0027065Y0043320D01*
X0027114Y0043195D01*
X0027158Y0043068D01*
X0027200Y0042940D01*
X0027237Y0042812D01*
X0027270Y0042682D01*
X0027300Y0042551D01*
X0027326Y0042419D01*
X0027347Y0042287D01*
X0027365Y0042154D01*
X0027379Y0042020D01*
X0027389Y0041886D01*
X0027395Y0041752D01*
X0027397Y0041618D01*
X0027395Y0041484D01*
X0027389Y0041350D01*
X0027379Y0041216D01*
X0027365Y0041082D01*
X0027347Y0040949D01*
X0027326Y0040817D01*
X0027300Y0040685D01*
X0027270Y0040554D01*
X0027237Y0040424D01*
X0027200Y0040296D01*
X0027158Y0040168D01*
X0027114Y0040041D01*
X0027065Y0039916D01*
X0027013Y0039793D01*
X0026957Y0039671D01*
X0026897Y0039550D01*
X0026834Y0039432D01*
X0026768Y0039315D01*
X0026698Y0039201D01*
X0026625Y0039088D01*
X0026548Y0038978D01*
X0026468Y0038870D01*
X0026385Y0038765D01*
X0026299Y0038662D01*
X0026210Y0038562D01*
X0026118Y0038464D01*
X0026023Y0038369D01*
X0025925Y0038277D01*
X0025825Y0038188D01*
X0025722Y0038102D01*
X0025617Y0038019D01*
X0025509Y0037939D01*
X0025399Y0037862D01*
X0025286Y0037789D01*
X0025172Y0037719D01*
X0025055Y0037653D01*
X0024937Y0037590D01*
X0024816Y0037530D01*
X0024694Y0037474D01*
X0024571Y0037422D01*
X0024446Y0037373D01*
X0024319Y0037329D01*
X0024191Y0037287D01*
X0024063Y0037250D01*
X0023933Y0037217D01*
X0023802Y0037187D01*
X0023670Y0037161D01*
X0023538Y0037140D01*
X0023405Y0037122D01*
X0023271Y0037108D01*
X0023137Y0037098D01*
X0023003Y0037092D01*
X0022869Y0037090D01*
X0022735Y0037092D01*
X0022601Y0037098D01*
X0022467Y0037108D01*
X0022333Y0037122D01*
X0022200Y0037140D01*
X0022068Y0037161D01*
X0021936Y0037187D01*
X0021805Y0037217D01*
X0021675Y0037250D01*
X0021547Y0037287D01*
X0021419Y0037329D01*
X0021292Y0037373D01*
X0021167Y0037422D01*
X0021044Y0037474D01*
X0020922Y0037530D01*
X0020801Y0037590D01*
X0020683Y0037653D01*
X0020566Y0037719D01*
X0020452Y0037789D01*
X0020339Y0037862D01*
X0020229Y0037939D01*
X0020121Y0038019D01*
X0020016Y0038102D01*
X0019913Y0038188D01*
X0019813Y0038277D01*
X0019715Y0038369D01*
X0019620Y0038464D01*
X0019528Y0038562D01*
X0019439Y0038662D01*
X0019353Y0038765D01*
X0019270Y0038870D01*
X0019190Y0038978D01*
X0019113Y0039088D01*
X0019040Y0039201D01*
X0018970Y0039315D01*
X0018904Y0039432D01*
X0018841Y0039550D01*
X0018781Y0039671D01*
X0018725Y0039793D01*
X0018673Y0039916D01*
X0018624Y0040041D01*
X0018580Y0040168D01*
X0018538Y0040296D01*
X0018501Y0040424D01*
X0018468Y0040554D01*
X0018438Y0040685D01*
X0018412Y0040817D01*
X0018391Y0040949D01*
X0018373Y0041082D01*
X0018359Y0041216D01*
X0018349Y0041350D01*
X0018343Y0041484D01*
X0018341Y0041618D01*
X0070074Y0041618D02*
X0070076Y0041752D01*
X0070082Y0041886D01*
X0070092Y0042020D01*
X0070106Y0042154D01*
X0070124Y0042287D01*
X0070145Y0042419D01*
X0070171Y0042551D01*
X0070201Y0042682D01*
X0070234Y0042812D01*
X0070271Y0042940D01*
X0070313Y0043068D01*
X0070357Y0043195D01*
X0070406Y0043320D01*
X0070458Y0043443D01*
X0070514Y0043565D01*
X0070574Y0043686D01*
X0070637Y0043804D01*
X0070703Y0043921D01*
X0070773Y0044035D01*
X0070846Y0044148D01*
X0070923Y0044258D01*
X0071003Y0044366D01*
X0071086Y0044471D01*
X0071172Y0044574D01*
X0071261Y0044674D01*
X0071353Y0044772D01*
X0071448Y0044867D01*
X0071546Y0044959D01*
X0071646Y0045048D01*
X0071749Y0045134D01*
X0071854Y0045217D01*
X0071962Y0045297D01*
X0072072Y0045374D01*
X0072185Y0045447D01*
X0072299Y0045517D01*
X0072416Y0045583D01*
X0072534Y0045646D01*
X0072655Y0045706D01*
X0072777Y0045762D01*
X0072900Y0045814D01*
X0073025Y0045863D01*
X0073152Y0045907D01*
X0073280Y0045949D01*
X0073408Y0045986D01*
X0073538Y0046019D01*
X0073669Y0046049D01*
X0073801Y0046075D01*
X0073933Y0046096D01*
X0074066Y0046114D01*
X0074200Y0046128D01*
X0074334Y0046138D01*
X0074468Y0046144D01*
X0074602Y0046146D01*
X0074736Y0046144D01*
X0074870Y0046138D01*
X0075004Y0046128D01*
X0075138Y0046114D01*
X0075271Y0046096D01*
X0075403Y0046075D01*
X0075535Y0046049D01*
X0075666Y0046019D01*
X0075796Y0045986D01*
X0075924Y0045949D01*
X0076052Y0045907D01*
X0076179Y0045863D01*
X0076304Y0045814D01*
X0076427Y0045762D01*
X0076549Y0045706D01*
X0076670Y0045646D01*
X0076788Y0045583D01*
X0076905Y0045517D01*
X0077019Y0045447D01*
X0077132Y0045374D01*
X0077242Y0045297D01*
X0077350Y0045217D01*
X0077455Y0045134D01*
X0077558Y0045048D01*
X0077658Y0044959D01*
X0077756Y0044867D01*
X0077851Y0044772D01*
X0077943Y0044674D01*
X0078032Y0044574D01*
X0078118Y0044471D01*
X0078201Y0044366D01*
X0078281Y0044258D01*
X0078358Y0044148D01*
X0078431Y0044035D01*
X0078501Y0043921D01*
X0078567Y0043804D01*
X0078630Y0043686D01*
X0078690Y0043565D01*
X0078746Y0043443D01*
X0078798Y0043320D01*
X0078847Y0043195D01*
X0078891Y0043068D01*
X0078933Y0042940D01*
X0078970Y0042812D01*
X0079003Y0042682D01*
X0079033Y0042551D01*
X0079059Y0042419D01*
X0079080Y0042287D01*
X0079098Y0042154D01*
X0079112Y0042020D01*
X0079122Y0041886D01*
X0079128Y0041752D01*
X0079130Y0041618D01*
X0079128Y0041484D01*
X0079122Y0041350D01*
X0079112Y0041216D01*
X0079098Y0041082D01*
X0079080Y0040949D01*
X0079059Y0040817D01*
X0079033Y0040685D01*
X0079003Y0040554D01*
X0078970Y0040424D01*
X0078933Y0040296D01*
X0078891Y0040168D01*
X0078847Y0040041D01*
X0078798Y0039916D01*
X0078746Y0039793D01*
X0078690Y0039671D01*
X0078630Y0039550D01*
X0078567Y0039432D01*
X0078501Y0039315D01*
X0078431Y0039201D01*
X0078358Y0039088D01*
X0078281Y0038978D01*
X0078201Y0038870D01*
X0078118Y0038765D01*
X0078032Y0038662D01*
X0077943Y0038562D01*
X0077851Y0038464D01*
X0077756Y0038369D01*
X0077658Y0038277D01*
X0077558Y0038188D01*
X0077455Y0038102D01*
X0077350Y0038019D01*
X0077242Y0037939D01*
X0077132Y0037862D01*
X0077019Y0037789D01*
X0076905Y0037719D01*
X0076788Y0037653D01*
X0076670Y0037590D01*
X0076549Y0037530D01*
X0076427Y0037474D01*
X0076304Y0037422D01*
X0076179Y0037373D01*
X0076052Y0037329D01*
X0075924Y0037287D01*
X0075796Y0037250D01*
X0075666Y0037217D01*
X0075535Y0037187D01*
X0075403Y0037161D01*
X0075271Y0037140D01*
X0075138Y0037122D01*
X0075004Y0037108D01*
X0074870Y0037098D01*
X0074736Y0037092D01*
X0074602Y0037090D01*
X0074468Y0037092D01*
X0074334Y0037098D01*
X0074200Y0037108D01*
X0074066Y0037122D01*
X0073933Y0037140D01*
X0073801Y0037161D01*
X0073669Y0037187D01*
X0073538Y0037217D01*
X0073408Y0037250D01*
X0073280Y0037287D01*
X0073152Y0037329D01*
X0073025Y0037373D01*
X0072900Y0037422D01*
X0072777Y0037474D01*
X0072655Y0037530D01*
X0072534Y0037590D01*
X0072416Y0037653D01*
X0072299Y0037719D01*
X0072185Y0037789D01*
X0072072Y0037862D01*
X0071962Y0037939D01*
X0071854Y0038019D01*
X0071749Y0038102D01*
X0071646Y0038188D01*
X0071546Y0038277D01*
X0071448Y0038369D01*
X0071353Y0038464D01*
X0071261Y0038562D01*
X0071172Y0038662D01*
X0071086Y0038765D01*
X0071003Y0038870D01*
X0070923Y0038978D01*
X0070846Y0039088D01*
X0070773Y0039201D01*
X0070703Y0039315D01*
X0070637Y0039432D01*
X0070574Y0039550D01*
X0070514Y0039671D01*
X0070458Y0039793D01*
X0070406Y0039916D01*
X0070357Y0040041D01*
X0070313Y0040168D01*
X0070271Y0040296D01*
X0070234Y0040424D01*
X0070201Y0040554D01*
X0070171Y0040685D01*
X0070145Y0040817D01*
X0070124Y0040949D01*
X0070106Y0041082D01*
X0070092Y0041216D01*
X0070082Y0041350D01*
X0070076Y0041484D01*
X0070074Y0041618D01*
D11*
X0099759Y0047189D03*
X0099759Y0032189D03*
X0094798Y0102465D03*
X0094798Y0117465D03*
D12*
X0092771Y0021343D03*
X0107771Y0021343D03*
D13*
X0061728Y0107849D03*
X0061728Y0114049D03*
X0123932Y0119581D03*
X0123932Y0125781D03*
D14*
X0088617Y0138771D03*
X0088617Y0150371D03*
D15*
X0088420Y0158035D03*
X0072672Y0158035D03*
D16*
X0101063Y0158002D03*
X0101063Y0148902D03*
X0101063Y0139802D03*
D17*
X0125464Y0148902D03*
D18*
X0071728Y0104531D03*
X0071728Y0097839D03*
D19*
X0074877Y0087957D03*
X0068184Y0087957D03*
X0027909Y0070083D03*
X0021216Y0070083D03*
X0020901Y0081894D03*
X0027594Y0081894D03*
D20*
X0066373Y0127642D03*
X0074247Y0127642D03*
X0082121Y0127642D03*
X0089995Y0127642D03*
X0097869Y0127642D03*
X0116767Y0127366D03*
X0116767Y0119492D03*
X0116767Y0111618D03*
X0116767Y0103744D03*
X0116767Y0095870D03*
X0116767Y0087996D03*
X0116767Y0080122D03*
X0116767Y0072248D03*
X0116767Y0064374D03*
X0116767Y0056500D03*
X0116767Y0048626D03*
X0116767Y0040752D03*
X0116767Y0032878D03*
X0116767Y0025004D03*
X0116767Y0017130D03*
D21*
X0083932Y0020555D03*
X0083932Y0030555D03*
X0083932Y0040555D03*
X0083932Y0050555D03*
X0083932Y0060555D03*
X0083932Y0070555D03*
X0083932Y0080555D03*
X0083932Y0090555D03*
X0013932Y0090555D03*
X0013932Y0080555D03*
X0013932Y0070555D03*
X0013932Y0060555D03*
X0013932Y0050555D03*
X0013932Y0040555D03*
X0013932Y0030555D03*
X0013932Y0020555D03*
D22*
X0040695Y0072996D03*
X0040695Y0077996D03*
X0040695Y0082996D03*
X0040695Y0087996D03*
X0040695Y0092996D03*
X0040695Y0097996D03*
X0040695Y0102996D03*
X0059295Y0102996D03*
X0059295Y0097996D03*
X0059295Y0092996D03*
X0059295Y0087996D03*
X0059295Y0082996D03*
X0059295Y0077996D03*
X0059295Y0072996D03*
D23*
X0062515Y0055157D02*
X0062515Y0049417D01*
X0052672Y0049417D02*
X0052672Y0055157D01*
X0044798Y0055157D02*
X0044798Y0049417D01*
X0034956Y0049417D02*
X0034956Y0055157D01*
D24*
X0030074Y0154335D02*
X0030074Y0161735D01*
X0020074Y0161735D02*
X0020074Y0154335D01*
X0010074Y0154335D02*
X0010074Y0161735D01*
X0040074Y0161735D02*
X0040074Y0154335D01*
X0050074Y0154335D02*
X0050074Y0161735D01*
X0060074Y0161735D02*
X0060074Y0154335D01*
D25*
X0084641Y0109256D02*
X0077909Y0102524D01*
X0077003Y0102524D01*
X0074995Y0104531D01*
X0071728Y0104531D01*
X0068410Y0107849D01*
X0061728Y0107849D01*
X0059295Y0105417D01*
X0059295Y0097996D02*
X0064129Y0097996D01*
X0066019Y0099886D01*
X0071728Y0097839D02*
X0066885Y0092996D01*
X0059295Y0092996D01*
X0056609Y0092996D01*
X0052082Y0088469D01*
X0052082Y0077012D01*
X0048224Y0075083D02*
X0051137Y0072169D01*
X0048224Y0075083D02*
X0048224Y0085555D01*
X0045783Y0087996D01*
X0040695Y0087996D01*
X0040656Y0083035D02*
X0032357Y0083035D01*
X0031216Y0081894D01*
X0027594Y0081894D01*
X0033932Y0078075D02*
X0027909Y0072051D01*
X0027909Y0070083D01*
X0033932Y0078075D02*
X0040617Y0078075D01*
X0040695Y0077996D01*
X0040695Y0072996D02*
X0044365Y0072996D01*
X0044444Y0072917D01*
X0044444Y0070122D01*
X0041334Y0067012D01*
X0040695Y0082996D02*
X0040656Y0083035D01*
X0040695Y0092996D02*
X0046570Y0092996D01*
X0048224Y0091343D01*
X0050113Y0096776D02*
X0048893Y0097996D01*
X0040695Y0097996D01*
X0059295Y0087996D02*
X0059335Y0087957D01*
X0068184Y0087957D01*
X0067082Y0082957D02*
X0059335Y0082957D01*
X0059295Y0082996D01*
X0059335Y0078035D02*
X0059295Y0077996D01*
X0059335Y0078035D02*
X0062987Y0078035D01*
X0066019Y0075004D01*
X0071728Y0075004D01*
X0078775Y0082051D01*
X0078775Y0085398D01*
X0083932Y0090555D01*
X0077003Y0090083D02*
X0077003Y0102524D01*
X0084641Y0109256D02*
X0103578Y0109256D01*
X0107279Y0112957D01*
X0107279Y0117878D01*
X0116767Y0127366D01*
X0118352Y0125781D01*
X0123932Y0125781D01*
X0123932Y0119581D02*
X0123982Y0119531D01*
X0126964Y0119531D01*
X0129169Y0121736D01*
X0129169Y0132996D01*
X0122363Y0139802D01*
X0101063Y0139802D01*
X0116856Y0119581D02*
X0116767Y0119492D01*
X0116856Y0119581D02*
X0123932Y0119581D01*
X0124759Y0111579D02*
X0132003Y0118823D01*
X0132003Y0158193D01*
X0127751Y0162445D01*
X0108460Y0162445D01*
X0102436Y0168469D01*
X0023854Y0168469D01*
X0019838Y0164453D01*
X0019838Y0158272D01*
X0020074Y0158035D01*
X0077003Y0090083D02*
X0074877Y0087957D01*
X0069050Y0081067D02*
X0068972Y0081067D01*
X0067082Y0082957D01*
X0090330Y0047189D02*
X0099759Y0047189D01*
X0106531Y0039925D02*
X0112436Y0034020D01*
X0115625Y0034020D01*
X0116767Y0032878D01*
X0114208Y0027563D02*
X0112791Y0027563D01*
X0114208Y0027563D02*
X0116767Y0025004D01*
X0106531Y0039925D02*
X0092751Y0039925D01*
X0088657Y0045516D02*
X0090330Y0047189D01*
X0099759Y0032189D02*
X0103558Y0032189D01*
X0116767Y0064374D02*
X0121846Y0064374D01*
X0124759Y0067287D01*
X0124759Y0111579D01*
X0069917Y0032839D02*
X0067633Y0030555D01*
X0013932Y0030555D01*
X0007830Y0027012D02*
X0007830Y0044453D01*
X0013932Y0050555D01*
X0013932Y0060555D02*
X0034444Y0040043D01*
X0061846Y0040043D01*
X0062003Y0040201D01*
X0076728Y0023193D02*
X0021688Y0023193D01*
D26*
X0031964Y0017799D03*
X0041334Y0067012D03*
X0051137Y0072169D03*
X0052082Y0077012D03*
X0048224Y0091343D03*
X0050113Y0096776D03*
X0051216Y0107169D03*
X0055704Y0118626D03*
X0051413Y0130909D03*
X0041767Y0133350D03*
X0021452Y0099925D03*
X0066019Y0099886D03*
X0069050Y0081067D03*
X0113224Y0143350D03*
X0098735Y0164728D03*
D27*
X0101063Y0162401D01*
X0101063Y0158002D01*
X0101029Y0158035D01*
X0088420Y0158035D01*
X0088617Y0157839D01*
X0088617Y0150371D01*
X0084790Y0145721D02*
X0092445Y0145721D01*
X0093327Y0146086D01*
X0094002Y0146761D01*
X0094263Y0147392D01*
X0094263Y0146024D01*
X0094628Y0145142D01*
X0095303Y0144467D01*
X0095820Y0144253D01*
X0095814Y0144252D01*
X0095312Y0143962D01*
X0094903Y0143552D01*
X0094613Y0143051D01*
X0094463Y0142491D01*
X0094463Y0139802D01*
X0101063Y0139802D01*
X0107663Y0139802D01*
X0107663Y0142491D01*
X0107513Y0143051D01*
X0107223Y0143552D01*
X0106814Y0143962D01*
X0106312Y0144252D01*
X0106306Y0144253D01*
X0106822Y0144467D01*
X0106919Y0144564D01*
X0109098Y0142385D01*
X0109679Y0140982D01*
X0110855Y0139806D01*
X0112392Y0139169D01*
X0114055Y0139169D01*
X0115592Y0139806D01*
X0116768Y0140982D01*
X0117405Y0142519D01*
X0117405Y0144182D01*
X0116768Y0145719D01*
X0115592Y0146895D01*
X0114189Y0147476D01*
X0109909Y0151757D01*
X0108585Y0152305D01*
X0107645Y0152305D01*
X0107498Y0152661D01*
X0106822Y0153336D01*
X0106544Y0153452D01*
X0106822Y0153567D01*
X0107498Y0154242D01*
X0107863Y0155124D01*
X0107863Y0159245D01*
X0126426Y0159245D01*
X0127282Y0158388D01*
X0120656Y0158388D01*
X0119774Y0158023D01*
X0119098Y0157348D01*
X0118733Y0156466D01*
X0118733Y0141338D01*
X0119098Y0140455D01*
X0119774Y0139780D01*
X0120656Y0139415D01*
X0128803Y0139415D01*
X0128803Y0120148D01*
X0128032Y0119377D01*
X0128032Y0119581D01*
X0123932Y0119581D01*
X0123932Y0119581D01*
X0123932Y0115881D01*
X0121743Y0115881D01*
X0121183Y0116031D01*
X0120681Y0116321D01*
X0120272Y0116730D01*
X0120229Y0116804D01*
X0120109Y0116638D01*
X0119621Y0116150D01*
X0119063Y0115745D01*
X0118934Y0115679D01*
X0119362Y0115502D01*
X0120651Y0114213D01*
X0121348Y0112529D01*
X0121348Y0110707D01*
X0120651Y0109023D01*
X0119362Y0107734D01*
X0119233Y0107681D01*
X0119362Y0107628D01*
X0120651Y0106339D01*
X0121348Y0104655D01*
X0121348Y0102833D01*
X0120651Y0101149D01*
X0119362Y0099860D01*
X0119233Y0099807D01*
X0119362Y0099754D01*
X0120651Y0098465D01*
X0121348Y0096781D01*
X0121348Y0094959D01*
X0120651Y0093275D01*
X0119362Y0091986D01*
X0119233Y0091933D01*
X0119362Y0091880D01*
X0120651Y0090591D01*
X0121348Y0088907D01*
X0121348Y0087085D01*
X0120651Y0085401D01*
X0119362Y0084112D01*
X0119233Y0084059D01*
X0119362Y0084006D01*
X0120651Y0082717D01*
X0121348Y0081033D01*
X0121348Y0079211D01*
X0120651Y0077527D01*
X0119362Y0076238D01*
X0119233Y0076185D01*
X0119362Y0076132D01*
X0120651Y0074843D01*
X0121348Y0073159D01*
X0121348Y0071337D01*
X0120651Y0069653D01*
X0119362Y0068364D01*
X0119233Y0068311D01*
X0119362Y0068258D01*
X0120046Y0067574D01*
X0120520Y0067574D01*
X0121559Y0068613D01*
X0121559Y0110942D01*
X0121559Y0112215D01*
X0122046Y0113391D01*
X0124536Y0115881D01*
X0123932Y0115881D01*
X0123932Y0119581D01*
X0123932Y0119581D01*
X0128032Y0119581D01*
X0128032Y0121371D01*
X0127882Y0121930D01*
X0127593Y0122432D01*
X0127485Y0122540D01*
X0127867Y0122922D01*
X0128232Y0123804D01*
X0128232Y0127758D01*
X0127867Y0128641D01*
X0127192Y0129316D01*
X0126310Y0129681D01*
X0121555Y0129681D01*
X0120882Y0129402D01*
X0120651Y0129961D01*
X0119362Y0131250D01*
X0117678Y0131947D01*
X0115856Y0131947D01*
X0114172Y0131250D01*
X0112883Y0129961D01*
X0112186Y0128277D01*
X0112186Y0127311D01*
X0105466Y0120591D01*
X0104566Y0119691D01*
X0104079Y0118514D01*
X0104079Y0114282D01*
X0102252Y0112456D01*
X0101184Y0112456D01*
X0101833Y0113105D01*
X0102198Y0113987D01*
X0102198Y0120942D01*
X0101833Y0121824D01*
X0101158Y0122499D01*
X0100276Y0122865D01*
X0089321Y0122865D01*
X0088439Y0122499D01*
X0087764Y0121824D01*
X0087398Y0120942D01*
X0087398Y0120877D01*
X0075836Y0120924D01*
X0075829Y0120927D01*
X0075120Y0120927D01*
X0074412Y0120930D01*
X0074405Y0120927D01*
X0069715Y0120927D01*
X0067494Y0123147D01*
X0068968Y0123758D01*
X0070257Y0125047D01*
X0070310Y0125176D01*
X0070364Y0125047D01*
X0071652Y0123758D01*
X0073336Y0123061D01*
X0075158Y0123061D01*
X0076842Y0123758D01*
X0078131Y0125047D01*
X0078184Y0125176D01*
X0078238Y0125047D01*
X0079526Y0123758D01*
X0081210Y0123061D01*
X0083032Y0123061D01*
X0084716Y0123758D01*
X0086005Y0125047D01*
X0086058Y0125176D01*
X0086112Y0125047D01*
X0087400Y0123758D01*
X0089084Y0123061D01*
X0090907Y0123061D01*
X0092590Y0123758D01*
X0093879Y0125047D01*
X0093932Y0125176D01*
X0093986Y0125047D01*
X0095274Y0123758D01*
X0096958Y0123061D01*
X0098781Y0123061D01*
X0100464Y0123758D01*
X0101753Y0125047D01*
X0102450Y0126730D01*
X0102450Y0128553D01*
X0101753Y0130237D01*
X0100464Y0131525D01*
X0098781Y0132223D01*
X0096958Y0132223D01*
X0095274Y0131525D01*
X0093986Y0130237D01*
X0093932Y0130108D01*
X0093879Y0130237D01*
X0092590Y0131525D01*
X0090907Y0132223D01*
X0089084Y0132223D01*
X0087400Y0131525D01*
X0086112Y0130237D01*
X0086058Y0130108D01*
X0086005Y0130237D01*
X0084716Y0131525D01*
X0083032Y0132223D01*
X0081210Y0132223D01*
X0079526Y0131525D01*
X0078238Y0130237D01*
X0078184Y0130108D01*
X0078131Y0130237D01*
X0076842Y0131525D01*
X0075158Y0132223D01*
X0073336Y0132223D01*
X0071652Y0131525D01*
X0070364Y0130237D01*
X0070310Y0130108D01*
X0070257Y0130237D01*
X0068968Y0131525D01*
X0067284Y0132223D01*
X0065462Y0132223D01*
X0063778Y0131525D01*
X0062490Y0130237D01*
X0061792Y0128553D01*
X0061792Y0126730D01*
X0062451Y0125139D01*
X0061447Y0125139D01*
X0060603Y0125983D01*
X0060603Y0139460D01*
X0060055Y0140783D01*
X0059042Y0141796D01*
X0055972Y0144867D01*
X0054648Y0145415D01*
X0036290Y0145415D01*
X0033713Y0147991D01*
X0033713Y0149348D01*
X0035245Y0150880D01*
X0035262Y0150921D01*
X0035574Y0150492D01*
X0036230Y0149835D01*
X0036982Y0149289D01*
X0037809Y0148868D01*
X0038692Y0148581D01*
X0039610Y0148435D01*
X0040074Y0148435D01*
X0040538Y0148435D01*
X0041456Y0148581D01*
X0042339Y0148868D01*
X0043166Y0149289D01*
X0043918Y0149835D01*
X0044574Y0150492D01*
X0044886Y0150921D01*
X0044903Y0150880D01*
X0046619Y0149164D01*
X0048861Y0148235D01*
X0051287Y0148235D01*
X0053529Y0149164D01*
X0055074Y0150709D01*
X0056619Y0149164D01*
X0058861Y0148235D01*
X0061287Y0148235D01*
X0063529Y0149164D01*
X0065245Y0150880D01*
X0066174Y0153122D01*
X0066174Y0154435D01*
X0066335Y0154435D01*
X0066335Y0153621D01*
X0066701Y0152739D01*
X0067376Y0152064D01*
X0068258Y0151698D01*
X0077087Y0151698D01*
X0077969Y0152064D01*
X0078644Y0152739D01*
X0079009Y0153621D01*
X0079009Y0162450D01*
X0078644Y0163332D01*
X0077969Y0164007D01*
X0077087Y0164372D01*
X0068258Y0164372D01*
X0067376Y0164007D01*
X0066701Y0163332D01*
X0066335Y0162450D01*
X0066335Y0161635D01*
X0066174Y0161635D01*
X0066174Y0162949D01*
X0065245Y0165191D01*
X0065168Y0165269D01*
X0094554Y0165269D01*
X0094554Y0163897D01*
X0095191Y0162360D01*
X0095209Y0162342D01*
X0094757Y0161890D01*
X0094757Y0162450D01*
X0094392Y0163332D01*
X0093717Y0164007D01*
X0092835Y0164372D01*
X0084006Y0164372D01*
X0083124Y0164007D01*
X0082449Y0163332D01*
X0082083Y0162450D01*
X0082083Y0153621D01*
X0082449Y0152739D01*
X0082867Y0152320D01*
X0082867Y0147643D01*
X0083233Y0146761D01*
X0083908Y0146086D01*
X0084790Y0145721D01*
X0083311Y0146683D02*
X0035022Y0146683D01*
X0033713Y0149081D02*
X0037390Y0149081D01*
X0040074Y0149081D02*
X0040074Y0149081D01*
X0040074Y0148435D02*
X0040074Y0158035D01*
X0040074Y0158035D01*
X0040074Y0148435D01*
X0040074Y0151480D02*
X0040074Y0151480D01*
X0040074Y0153878D02*
X0040074Y0153878D01*
X0040074Y0156277D02*
X0040074Y0156277D01*
X0042758Y0149081D02*
X0046819Y0149081D01*
X0053329Y0149081D02*
X0056819Y0149081D01*
X0056554Y0144284D02*
X0095745Y0144284D01*
X0094463Y0141886D02*
X0094008Y0141886D01*
X0094017Y0141870D02*
X0093728Y0142372D01*
X0093318Y0142781D01*
X0092816Y0143071D01*
X0092257Y0143221D01*
X0088617Y0143221D01*
X0084978Y0143221D01*
X0084418Y0143071D01*
X0083916Y0142781D01*
X0083507Y0142372D01*
X0083217Y0141870D01*
X0083067Y0141310D01*
X0083067Y0138771D01*
X0088617Y0138771D01*
X0088617Y0138771D01*
X0088617Y0143221D01*
X0088617Y0138771D01*
X0088617Y0138771D01*
X0083067Y0138771D01*
X0083067Y0136231D01*
X0083217Y0135672D01*
X0083507Y0135170D01*
X0083916Y0134760D01*
X0084418Y0134471D01*
X0084978Y0134321D01*
X0088617Y0134321D01*
X0088617Y0138771D01*
X0089648Y0139802D01*
X0101063Y0139802D01*
X0101063Y0139802D01*
X0101063Y0139802D01*
X0107663Y0139802D01*
X0107663Y0137112D01*
X0107513Y0136552D01*
X0107223Y0136051D01*
X0106814Y0135641D01*
X0106312Y0135352D01*
X0105753Y0135202D01*
X0101063Y0135202D01*
X0101063Y0139801D01*
X0101063Y0139801D01*
X0101063Y0135202D01*
X0096373Y0135202D01*
X0095814Y0135352D01*
X0095312Y0135641D01*
X0094903Y0136051D01*
X0094613Y0136552D01*
X0094463Y0137112D01*
X0094463Y0139802D01*
X0101063Y0139802D01*
X0101063Y0139487D02*
X0101063Y0139487D01*
X0101063Y0137089D02*
X0101063Y0137089D01*
X0094469Y0137089D02*
X0094167Y0137089D01*
X0094167Y0136231D02*
X0094167Y0138771D01*
X0094167Y0141310D01*
X0094017Y0141870D01*
X0094167Y0139487D02*
X0094463Y0139487D01*
X0094167Y0138771D02*
X0088617Y0138771D01*
X0088617Y0138771D01*
X0088617Y0138771D01*
X0088617Y0134321D01*
X0092257Y0134321D01*
X0092816Y0134471D01*
X0093318Y0134760D01*
X0093728Y0135170D01*
X0094017Y0135672D01*
X0094167Y0136231D01*
X0093197Y0134690D02*
X0128803Y0134690D01*
X0128803Y0132292D02*
X0060603Y0132292D01*
X0060603Y0134690D02*
X0084038Y0134690D01*
X0083067Y0137089D02*
X0060603Y0137089D01*
X0060592Y0139487D02*
X0083067Y0139487D01*
X0083226Y0141886D02*
X0058953Y0141886D01*
X0057003Y0138744D02*
X0057003Y0124492D01*
X0059956Y0121539D01*
X0064011Y0121539D01*
X0068224Y0117327D01*
X0075113Y0117327D01*
X0094582Y0117248D01*
X0094798Y0117465D01*
X0088918Y0122698D02*
X0067944Y0122698D01*
X0070277Y0125096D02*
X0070343Y0125096D01*
X0062347Y0129893D02*
X0060603Y0129893D01*
X0060603Y0127495D02*
X0061792Y0127495D01*
X0056105Y0120299D02*
X0050264Y0120299D01*
X0052662Y0117901D02*
X0062559Y0117901D01*
X0062520Y0117939D02*
X0062710Y0117749D01*
X0061728Y0117749D01*
X0061728Y0114049D01*
X0065828Y0114049D01*
X0065828Y0114632D01*
X0066184Y0114275D01*
X0067508Y0113727D01*
X0075107Y0113727D01*
X0087527Y0113677D01*
X0087764Y0113105D01*
X0088413Y0112456D01*
X0084004Y0112456D01*
X0082828Y0111969D01*
X0077456Y0106596D01*
X0076808Y0107244D01*
X0076053Y0107557D01*
X0075928Y0107859D01*
X0075252Y0108535D01*
X0074370Y0108900D01*
X0071885Y0108900D01*
X0070223Y0110562D01*
X0069047Y0111049D01*
X0065322Y0111049D01*
X0065280Y0111090D01*
X0065388Y0111198D01*
X0065678Y0111700D01*
X0065828Y0112259D01*
X0065828Y0114049D01*
X0061728Y0114049D01*
X0061728Y0114049D01*
X0061727Y0114049D01*
X0061727Y0114049D01*
X0057628Y0114049D01*
X0057628Y0115838D01*
X0057777Y0116398D01*
X0058067Y0116900D01*
X0058477Y0117309D01*
X0058978Y0117599D01*
X0059538Y0117749D01*
X0061727Y0117749D01*
X0061727Y0114049D01*
X0057628Y0114049D01*
X0057628Y0112935D01*
X0054976Y0115586D01*
X0054976Y0115586D01*
X0044028Y0126534D01*
X0044028Y0129762D01*
X0044135Y0129806D01*
X0045311Y0130982D01*
X0045948Y0132519D01*
X0045948Y0134182D01*
X0045311Y0135719D01*
X0044135Y0136895D01*
X0042599Y0137531D01*
X0040935Y0137531D01*
X0039399Y0136895D01*
X0038222Y0135719D01*
X0037641Y0134316D01*
X0037376Y0134051D01*
X0036828Y0132728D01*
X0036828Y0124327D01*
X0037376Y0123004D01*
X0038389Y0121991D01*
X0043233Y0117147D01*
X0005736Y0117147D01*
X0004600Y0116677D01*
X0004600Y0151611D01*
X0004903Y0150880D01*
X0006619Y0149164D01*
X0008861Y0148235D01*
X0011287Y0148235D01*
X0013529Y0149164D01*
X0015074Y0150709D01*
X0016619Y0149164D01*
X0018861Y0148235D01*
X0021287Y0148235D01*
X0023529Y0149164D01*
X0025074Y0150709D01*
X0026513Y0149269D01*
X0026513Y0145784D01*
X0027061Y0144461D01*
X0032759Y0138763D01*
X0034082Y0138215D01*
X0052441Y0138215D01*
X0053403Y0137253D01*
X0053403Y0123776D01*
X0053951Y0122453D01*
X0056904Y0119500D01*
X0057917Y0118487D01*
X0059240Y0117939D01*
X0062520Y0117939D01*
X0061727Y0115502D02*
X0061728Y0115502D01*
X0057628Y0115502D02*
X0055061Y0115502D01*
X0057459Y0113104D02*
X0057628Y0113104D01*
X0057623Y0107849D02*
X0051924Y0113547D01*
X0040428Y0125043D01*
X0040428Y0132012D01*
X0041767Y0133350D01*
X0043668Y0137089D02*
X0053403Y0137089D01*
X0053403Y0134690D02*
X0045738Y0134690D01*
X0045854Y0132292D02*
X0053403Y0132292D01*
X0053403Y0129893D02*
X0044223Y0129893D01*
X0044028Y0127495D02*
X0053403Y0127495D01*
X0053403Y0125096D02*
X0045467Y0125096D01*
X0047865Y0122698D02*
X0053850Y0122698D01*
X0051924Y0113547D02*
X0006452Y0113547D01*
X0004444Y0111539D01*
X0004444Y0019295D01*
X0009050Y0014689D01*
X0020074Y0014689D01*
X0023184Y0017799D01*
X0031964Y0017799D01*
X0022731Y0026393D02*
X0021987Y0027136D01*
X0021769Y0027355D01*
X0068270Y0027355D01*
X0069446Y0027842D01*
X0071678Y0030075D01*
X0076970Y0030075D01*
X0078073Y0030532D01*
X0078432Y0030891D01*
X0078432Y0030555D01*
X0078432Y0028358D01*
X0078296Y0028358D01*
X0077194Y0027902D01*
X0075685Y0026393D01*
X0022731Y0026393D01*
X0022367Y0026757D02*
X0076049Y0026757D01*
X0078432Y0029156D02*
X0070759Y0029156D01*
X0078432Y0030555D02*
X0083932Y0030555D01*
X0083932Y0030555D01*
X0078432Y0030555D01*
X0083932Y0030555D02*
X0089432Y0030555D01*
X0083932Y0030555D01*
X0083932Y0030555D01*
X0089432Y0030555D02*
X0089432Y0028743D01*
X0092359Y0028743D01*
X0092359Y0035195D01*
X0091132Y0033922D01*
X0091121Y0033895D01*
X0090719Y0033493D01*
X0090324Y0033083D01*
X0090298Y0033072D01*
X0090277Y0033051D01*
X0089751Y0032833D01*
X0089432Y0032694D01*
X0089432Y0030555D01*
X0089432Y0031554D02*
X0092359Y0031554D01*
X0092359Y0029156D02*
X0089432Y0029156D01*
X0091162Y0033953D02*
X0092359Y0033953D01*
X0103558Y0032189D02*
X0108165Y0032189D01*
X0112791Y0027563D01*
X0107771Y0021343D02*
X0111983Y0017130D01*
X0116767Y0017130D01*
X0116649Y0056382D02*
X0112633Y0056382D01*
X0094798Y0074217D01*
X0094798Y0102465D01*
X0087765Y0113104D02*
X0065828Y0113104D01*
X0069877Y0110705D02*
X0081565Y0110705D01*
X0079166Y0108307D02*
X0075480Y0108307D01*
X0061728Y0107849D02*
X0057623Y0107849D01*
X0059295Y0105417D02*
X0059295Y0102996D01*
X0054187Y0106193D02*
X0054036Y0106131D01*
X0053361Y0105456D01*
X0052995Y0104573D01*
X0052995Y0101419D01*
X0053361Y0100537D01*
X0053401Y0100496D01*
X0053361Y0100456D01*
X0053064Y0099738D01*
X0052482Y0100320D01*
X0050945Y0100957D01*
X0050107Y0100957D01*
X0049529Y0101196D01*
X0046685Y0101196D01*
X0046795Y0101606D01*
X0046795Y0102996D01*
X0040695Y0102996D01*
X0034595Y0102996D01*
X0034595Y0101606D01*
X0034745Y0101047D01*
X0034967Y0100662D01*
X0034761Y0100456D01*
X0034395Y0099573D01*
X0034395Y0096419D01*
X0034761Y0095537D01*
X0034801Y0095496D01*
X0034761Y0095456D01*
X0034395Y0094573D01*
X0034395Y0091419D01*
X0034761Y0090537D01*
X0034801Y0090496D01*
X0034761Y0090456D01*
X0034395Y0089573D01*
X0034395Y0086419D01*
X0034471Y0086235D01*
X0031721Y0086235D01*
X0031056Y0085960D01*
X0030922Y0086094D01*
X0030040Y0086459D01*
X0025148Y0086459D01*
X0024266Y0086094D01*
X0024247Y0086075D01*
X0024229Y0086094D01*
X0023347Y0086459D01*
X0018455Y0086459D01*
X0017573Y0086094D01*
X0017014Y0085535D01*
X0016993Y0085555D01*
X0019632Y0088194D01*
X0019632Y0092916D01*
X0016293Y0096255D01*
X0011571Y0096255D01*
X0008232Y0092916D01*
X0008232Y0088194D01*
X0010871Y0085555D01*
X0008232Y0082916D01*
X0008232Y0078194D01*
X0010871Y0075555D01*
X0008232Y0072916D01*
X0008232Y0068194D01*
X0010871Y0065555D01*
X0008232Y0062916D01*
X0008232Y0058194D01*
X0010871Y0055555D01*
X0008232Y0052916D01*
X0008232Y0049381D01*
X0008044Y0049192D01*
X0008044Y0109947D01*
X0050433Y0109947D01*
X0054187Y0106193D01*
X0053813Y0105908D02*
X0045857Y0105908D01*
X0045946Y0105856D02*
X0045444Y0106146D01*
X0044885Y0106296D01*
X0040695Y0106296D01*
X0036506Y0106296D01*
X0035946Y0106146D01*
X0035444Y0105856D01*
X0035035Y0105447D01*
X0034745Y0104945D01*
X0034595Y0104386D01*
X0034595Y0102996D01*
X0040695Y0102996D01*
X0040695Y0102996D01*
X0040695Y0106296D01*
X0040695Y0102996D01*
X0040695Y0102996D01*
X0040695Y0102996D01*
X0046795Y0102996D01*
X0046795Y0104386D01*
X0046645Y0104945D01*
X0046356Y0105447D01*
X0045946Y0105856D01*
X0046795Y0103510D02*
X0052995Y0103510D01*
X0053123Y0101111D02*
X0049735Y0101111D01*
X0052074Y0108307D02*
X0008044Y0108307D01*
X0008044Y0105908D02*
X0035534Y0105908D01*
X0034595Y0103510D02*
X0008044Y0103510D01*
X0008044Y0101111D02*
X0034728Y0101111D01*
X0034395Y0098713D02*
X0008044Y0098713D01*
X0008044Y0096314D02*
X0034439Y0096314D01*
X0034395Y0093916D02*
X0018633Y0093916D01*
X0019632Y0091517D02*
X0034395Y0091517D01*
X0034395Y0089119D02*
X0019632Y0089119D01*
X0018158Y0086720D02*
X0034395Y0086720D01*
X0034395Y0074012D02*
X0034395Y0071419D01*
X0034761Y0070537D01*
X0035436Y0069861D01*
X0036318Y0069496D01*
X0037905Y0069496D01*
X0037789Y0069380D01*
X0037153Y0067843D01*
X0037153Y0066180D01*
X0037789Y0064643D01*
X0038965Y0063467D01*
X0040502Y0062831D01*
X0042166Y0062831D01*
X0043702Y0063467D01*
X0044878Y0064643D01*
X0045515Y0066180D01*
X0045515Y0066667D01*
X0046257Y0067409D01*
X0047157Y0068309D01*
X0047644Y0069486D01*
X0047644Y0069749D01*
X0048769Y0068625D01*
X0050305Y0067988D01*
X0051969Y0067988D01*
X0053505Y0068625D01*
X0054535Y0069655D01*
X0054918Y0069496D01*
X0063673Y0069496D01*
X0064555Y0069861D01*
X0065230Y0070537D01*
X0065595Y0071419D01*
X0065595Y0071804D01*
X0072364Y0071804D01*
X0073540Y0072291D01*
X0074440Y0073191D01*
X0078838Y0077589D01*
X0080871Y0075555D01*
X0078232Y0072916D01*
X0078232Y0068194D01*
X0080871Y0065555D01*
X0078232Y0062916D01*
X0078232Y0058194D01*
X0080871Y0055555D01*
X0078232Y0052916D01*
X0078232Y0050840D01*
X0077941Y0050839D01*
X0077351Y0050839D01*
X0077344Y0050836D01*
X0069635Y0050799D01*
X0069044Y0050799D01*
X0069037Y0050796D01*
X0069030Y0050796D01*
X0068487Y0050568D01*
X0067942Y0050342D01*
X0067936Y0050337D01*
X0067930Y0050334D01*
X0067785Y0050188D01*
X0067785Y0056206D01*
X0066983Y0058143D01*
X0065500Y0059625D01*
X0063563Y0060428D01*
X0061467Y0060428D01*
X0059530Y0059625D01*
X0058047Y0058143D01*
X0057594Y0057048D01*
X0057140Y0058143D01*
X0055658Y0059625D01*
X0053721Y0060428D01*
X0051624Y0060428D01*
X0049687Y0059625D01*
X0048735Y0058673D01*
X0047784Y0059625D01*
X0045847Y0060428D01*
X0043750Y0060428D01*
X0041813Y0059625D01*
X0040331Y0058143D01*
X0039763Y0056771D01*
X0039655Y0057104D01*
X0039292Y0057815D01*
X0038823Y0058460D01*
X0038259Y0059025D01*
X0037613Y0059494D01*
X0036902Y0059856D01*
X0036143Y0060103D01*
X0035355Y0060228D01*
X0034956Y0060228D01*
X0034956Y0052288D01*
X0034956Y0052288D01*
X0034956Y0060228D01*
X0034557Y0060228D01*
X0033769Y0060103D01*
X0033010Y0059856D01*
X0032299Y0059494D01*
X0031653Y0059025D01*
X0031089Y0058460D01*
X0030620Y0057815D01*
X0030257Y0057104D01*
X0030011Y0056345D01*
X0029886Y0055557D01*
X0029886Y0052287D01*
X0029886Y0049127D01*
X0019632Y0059381D01*
X0019632Y0062916D01*
X0016993Y0065555D01*
X0017604Y0066166D01*
X0017888Y0065883D01*
X0018770Y0065517D01*
X0023662Y0065517D01*
X0024544Y0065883D01*
X0024562Y0065901D01*
X0024581Y0065883D01*
X0025463Y0065517D01*
X0030355Y0065517D01*
X0031237Y0065883D01*
X0031912Y0066558D01*
X0032277Y0067440D01*
X0032277Y0071894D01*
X0034395Y0074012D01*
X0034395Y0072329D02*
X0032712Y0072329D01*
X0032277Y0069930D02*
X0035367Y0069930D01*
X0037153Y0067532D02*
X0032277Y0067532D01*
X0037586Y0065133D02*
X0017415Y0065133D01*
X0019632Y0062735D02*
X0078232Y0062735D01*
X0078232Y0060336D02*
X0063783Y0060336D01*
X0061247Y0060336D02*
X0053941Y0060336D01*
X0051404Y0060336D02*
X0046067Y0060336D01*
X0043530Y0060336D02*
X0019632Y0060336D01*
X0021075Y0057938D02*
X0030709Y0057938D01*
X0029886Y0055539D02*
X0023474Y0055539D01*
X0025872Y0053141D02*
X0029886Y0053141D01*
X0029886Y0052287D02*
X0034956Y0052287D01*
X0034956Y0044347D01*
X0035355Y0044347D01*
X0036143Y0044472D01*
X0036902Y0044719D01*
X0037613Y0045081D01*
X0038259Y0045550D01*
X0038823Y0046114D01*
X0039292Y0046760D01*
X0039655Y0047471D01*
X0039763Y0047804D01*
X0040331Y0046432D01*
X0041813Y0044950D01*
X0043750Y0044147D01*
X0045847Y0044147D01*
X0047784Y0044950D01*
X0048735Y0045901D01*
X0049687Y0044950D01*
X0051624Y0044147D01*
X0053721Y0044147D01*
X0055658Y0044950D01*
X0057140Y0046432D01*
X0057594Y0047527D01*
X0058047Y0046432D01*
X0059530Y0044950D01*
X0061467Y0044147D01*
X0061746Y0044147D01*
X0060842Y0043243D01*
X0035770Y0043243D01*
X0034666Y0044347D01*
X0034956Y0044347D01*
X0034956Y0052287D01*
X0034956Y0052287D01*
X0029886Y0052287D01*
X0029886Y0050742D02*
X0028271Y0050742D01*
X0034956Y0050742D02*
X0034956Y0050742D01*
X0034956Y0052287D02*
X0034956Y0052287D01*
X0034956Y0053141D02*
X0034956Y0053141D01*
X0034956Y0055539D02*
X0034956Y0055539D01*
X0034956Y0057938D02*
X0034956Y0057938D01*
X0039203Y0057938D02*
X0040246Y0057938D01*
X0045081Y0065133D02*
X0080450Y0065133D01*
X0078894Y0067532D02*
X0046379Y0067532D01*
X0057225Y0057938D02*
X0057962Y0057938D01*
X0058534Y0045945D02*
X0056653Y0045945D01*
X0061146Y0043547D02*
X0035466Y0043547D01*
X0034956Y0045945D02*
X0034956Y0045945D01*
X0034956Y0048344D02*
X0034956Y0048344D01*
X0038654Y0045945D02*
X0040817Y0045945D01*
X0021216Y0070083D02*
X0014405Y0070083D01*
X0013932Y0070555D01*
X0010044Y0074727D02*
X0008044Y0074727D01*
X0008044Y0072329D02*
X0008232Y0072329D01*
X0008232Y0069930D02*
X0008044Y0069930D01*
X0008044Y0067532D02*
X0008894Y0067532D01*
X0008044Y0065133D02*
X0010450Y0065133D01*
X0008232Y0062735D02*
X0008044Y0062735D01*
X0008044Y0060336D02*
X0008232Y0060336D01*
X0008044Y0057938D02*
X0008489Y0057938D01*
X0008044Y0055539D02*
X0010855Y0055539D01*
X0008457Y0053141D02*
X0008044Y0053141D01*
X0008044Y0050742D02*
X0008232Y0050742D01*
X0008044Y0077126D02*
X0009300Y0077126D01*
X0008232Y0079524D02*
X0008044Y0079524D01*
X0008044Y0081923D02*
X0008232Y0081923D01*
X0008044Y0084321D02*
X0009638Y0084321D01*
X0009706Y0086720D02*
X0008044Y0086720D01*
X0008044Y0089119D02*
X0008232Y0089119D01*
X0008232Y0091517D02*
X0008044Y0091517D01*
X0008044Y0093916D02*
X0009232Y0093916D01*
X0015271Y0081894D02*
X0020901Y0081894D01*
X0015271Y0081894D02*
X0013932Y0080555D01*
X0040695Y0103510D02*
X0040695Y0103510D01*
X0040695Y0105908D02*
X0040695Y0105908D01*
X0042480Y0117901D02*
X0004600Y0117901D01*
X0004600Y0120299D02*
X0040081Y0120299D01*
X0037683Y0122698D02*
X0004600Y0122698D01*
X0004600Y0125096D02*
X0036828Y0125096D01*
X0036828Y0127495D02*
X0004600Y0127495D01*
X0004600Y0129893D02*
X0036828Y0129893D01*
X0036828Y0132292D02*
X0004600Y0132292D01*
X0004600Y0134690D02*
X0037796Y0134690D01*
X0039866Y0137089D02*
X0004600Y0137089D01*
X0004600Y0139487D02*
X0032035Y0139487D01*
X0029636Y0141886D02*
X0004600Y0141886D01*
X0004600Y0144284D02*
X0027238Y0144284D01*
X0026513Y0146683D02*
X0004600Y0146683D01*
X0004600Y0149081D02*
X0006819Y0149081D01*
X0004654Y0151480D02*
X0004600Y0151480D01*
X0013329Y0149081D02*
X0016819Y0149081D01*
X0023329Y0149081D02*
X0026513Y0149081D01*
X0030113Y0146500D02*
X0034798Y0141815D01*
X0053932Y0141815D01*
X0057003Y0138744D01*
X0063329Y0149081D02*
X0082867Y0149081D01*
X0082867Y0151480D02*
X0065494Y0151480D01*
X0066174Y0153878D02*
X0066335Y0153878D01*
X0060074Y0158035D02*
X0072672Y0158035D01*
X0066841Y0163472D02*
X0065957Y0163472D01*
X0078504Y0163472D02*
X0082589Y0163472D01*
X0082083Y0161074D02*
X0079009Y0161074D01*
X0079009Y0158675D02*
X0082083Y0158675D01*
X0082083Y0156277D02*
X0079009Y0156277D01*
X0079009Y0153878D02*
X0082083Y0153878D01*
X0088617Y0141886D02*
X0088617Y0141886D01*
X0088617Y0139487D02*
X0088617Y0139487D01*
X0088617Y0138771D02*
X0094167Y0138771D01*
X0088617Y0137089D02*
X0088617Y0137089D01*
X0088617Y0134690D02*
X0088617Y0134690D01*
X0086091Y0125096D02*
X0086025Y0125096D01*
X0093899Y0125096D02*
X0093965Y0125096D01*
X0100679Y0122698D02*
X0107573Y0122698D01*
X0109971Y0125096D02*
X0101773Y0125096D01*
X0102450Y0127495D02*
X0112186Y0127495D01*
X0112855Y0129893D02*
X0101895Y0129893D01*
X0107657Y0137089D02*
X0128803Y0137089D01*
X0128803Y0129893D02*
X0120679Y0129893D01*
X0128232Y0127495D02*
X0128803Y0127495D01*
X0128803Y0125096D02*
X0128232Y0125096D01*
X0128803Y0122698D02*
X0127643Y0122698D01*
X0128032Y0120299D02*
X0128803Y0120299D01*
X0123932Y0117901D02*
X0123932Y0117901D01*
X0124157Y0115502D02*
X0119361Y0115502D01*
X0121110Y0113104D02*
X0121927Y0113104D01*
X0121559Y0110705D02*
X0121347Y0110705D01*
X0121559Y0108307D02*
X0119934Y0108307D01*
X0120829Y0105908D02*
X0121559Y0105908D01*
X0121559Y0103510D02*
X0121348Y0103510D01*
X0121559Y0101111D02*
X0120613Y0101111D01*
X0120403Y0098713D02*
X0121559Y0098713D01*
X0121559Y0096314D02*
X0121348Y0096314D01*
X0121559Y0093916D02*
X0120916Y0093916D01*
X0121559Y0091517D02*
X0119725Y0091517D01*
X0121261Y0089119D02*
X0121559Y0089119D01*
X0121559Y0086720D02*
X0121197Y0086720D01*
X0121559Y0084321D02*
X0119571Y0084321D01*
X0120980Y0081923D02*
X0121559Y0081923D01*
X0121559Y0079524D02*
X0121348Y0079524D01*
X0121559Y0077126D02*
X0120249Y0077126D01*
X0120698Y0074727D02*
X0121559Y0074727D01*
X0121559Y0072329D02*
X0121348Y0072329D01*
X0121559Y0069930D02*
X0120765Y0069930D01*
X0116767Y0056500D02*
X0116649Y0056382D01*
X0080856Y0055539D02*
X0067785Y0055539D01*
X0067785Y0053141D02*
X0078457Y0053141D01*
X0078489Y0057938D02*
X0067068Y0057938D01*
X0067785Y0050742D02*
X0068901Y0050742D01*
X0064624Y0069930D02*
X0078232Y0069930D01*
X0078232Y0072329D02*
X0073578Y0072329D01*
X0075977Y0074727D02*
X0080044Y0074727D01*
X0079300Y0077126D02*
X0078375Y0077126D01*
X0101832Y0113104D02*
X0102900Y0113104D01*
X0102198Y0115502D02*
X0104079Y0115502D01*
X0104079Y0117901D02*
X0102198Y0117901D01*
X0102198Y0120299D02*
X0105174Y0120299D01*
X0107663Y0139487D02*
X0111624Y0139487D01*
X0114823Y0139487D02*
X0120481Y0139487D01*
X0118733Y0141886D02*
X0117143Y0141886D01*
X0117362Y0144284D02*
X0118733Y0144284D01*
X0118733Y0146683D02*
X0115804Y0146683D01*
X0118733Y0149081D02*
X0112584Y0149081D01*
X0110185Y0151480D02*
X0118733Y0151480D01*
X0118733Y0153878D02*
X0107134Y0153878D01*
X0107863Y0156277D02*
X0118733Y0156277D01*
X0126995Y0158675D02*
X0107863Y0158675D01*
X0107869Y0148705D02*
X0101260Y0148705D01*
X0106381Y0144284D02*
X0107199Y0144284D01*
X0107663Y0141886D02*
X0109305Y0141886D01*
X0113224Y0143350D02*
X0107869Y0148705D01*
X0094263Y0146683D02*
X0093923Y0146683D01*
X0094252Y0163472D02*
X0094730Y0163472D01*
X0078217Y0125096D02*
X0078151Y0125096D01*
X0030113Y0146500D02*
X0030113Y0157996D01*
X0030074Y0158035D01*
D28*
X0069641Y0047799D02*
X0062043Y0040201D01*
X0062003Y0040201D01*
X0069917Y0033075D02*
X0069917Y0032839D01*
X0069917Y0033075D02*
X0076373Y0033075D01*
X0078696Y0035398D01*
X0078696Y0035555D01*
X0078735Y0035594D02*
X0088578Y0035594D01*
X0092751Y0039925D01*
X0088657Y0045516D02*
X0080231Y0045555D01*
X0077948Y0047839D01*
X0069641Y0047799D01*
X0078893Y0025358D02*
X0076728Y0023193D01*
X0078893Y0025358D02*
X0087397Y0025358D01*
X0091413Y0021343D01*
X0092771Y0021343D01*
X0021688Y0023193D02*
X0019444Y0025437D01*
X0009405Y0025437D01*
X0007830Y0027012D01*
M02*
