G75*
%MOIN*%
%OFA0B0*%
%FSLAX25Y25*%
%IPPOS*%
%LPD*%
%AMOC8*
5,1,8,0,0,1.08239X$1,22.5*
%
%ADD10C,0.00000*%
%ADD11C,0.00400*%
%ADD12C,0.00800*%
%ADD13C,0.00700*%
%ADD14R,0.01875X0.12500*%
%ADD15C,0.00600*%
%ADD16C,0.00500*%
%ADD17C,0.00300*%
%ADD18C,0.00276*%
%ADD19R,0.02362X0.07087*%
%ADD20R,0.02362X0.04331*%
%ADD21C,0.01000*%
%ADD22C,0.00984*%
%ADD23C,0.00787*%
%ADD24R,0.06200X0.02400*%
%ADD25R,0.02400X0.06200*%
D10*
X0002200Y0012366D02*
X0002200Y0173783D01*
X0136255Y0173980D01*
X0136255Y0012563D01*
X0002200Y0012366D01*
X0018341Y0041618D02*
X0018343Y0041752D01*
X0018349Y0041886D01*
X0018359Y0042020D01*
X0018373Y0042154D01*
X0018391Y0042287D01*
X0018412Y0042419D01*
X0018438Y0042551D01*
X0018468Y0042682D01*
X0018501Y0042812D01*
X0018538Y0042940D01*
X0018580Y0043068D01*
X0018624Y0043195D01*
X0018673Y0043320D01*
X0018725Y0043443D01*
X0018781Y0043565D01*
X0018841Y0043686D01*
X0018904Y0043804D01*
X0018970Y0043921D01*
X0019040Y0044035D01*
X0019113Y0044148D01*
X0019190Y0044258D01*
X0019270Y0044366D01*
X0019353Y0044471D01*
X0019439Y0044574D01*
X0019528Y0044674D01*
X0019620Y0044772D01*
X0019715Y0044867D01*
X0019813Y0044959D01*
X0019913Y0045048D01*
X0020016Y0045134D01*
X0020121Y0045217D01*
X0020229Y0045297D01*
X0020339Y0045374D01*
X0020452Y0045447D01*
X0020566Y0045517D01*
X0020683Y0045583D01*
X0020801Y0045646D01*
X0020922Y0045706D01*
X0021044Y0045762D01*
X0021167Y0045814D01*
X0021292Y0045863D01*
X0021419Y0045907D01*
X0021547Y0045949D01*
X0021675Y0045986D01*
X0021805Y0046019D01*
X0021936Y0046049D01*
X0022068Y0046075D01*
X0022200Y0046096D01*
X0022333Y0046114D01*
X0022467Y0046128D01*
X0022601Y0046138D01*
X0022735Y0046144D01*
X0022869Y0046146D01*
X0023003Y0046144D01*
X0023137Y0046138D01*
X0023271Y0046128D01*
X0023405Y0046114D01*
X0023538Y0046096D01*
X0023670Y0046075D01*
X0023802Y0046049D01*
X0023933Y0046019D01*
X0024063Y0045986D01*
X0024191Y0045949D01*
X0024319Y0045907D01*
X0024446Y0045863D01*
X0024571Y0045814D01*
X0024694Y0045762D01*
X0024816Y0045706D01*
X0024937Y0045646D01*
X0025055Y0045583D01*
X0025172Y0045517D01*
X0025286Y0045447D01*
X0025399Y0045374D01*
X0025509Y0045297D01*
X0025617Y0045217D01*
X0025722Y0045134D01*
X0025825Y0045048D01*
X0025925Y0044959D01*
X0026023Y0044867D01*
X0026118Y0044772D01*
X0026210Y0044674D01*
X0026299Y0044574D01*
X0026385Y0044471D01*
X0026468Y0044366D01*
X0026548Y0044258D01*
X0026625Y0044148D01*
X0026698Y0044035D01*
X0026768Y0043921D01*
X0026834Y0043804D01*
X0026897Y0043686D01*
X0026957Y0043565D01*
X0027013Y0043443D01*
X0027065Y0043320D01*
X0027114Y0043195D01*
X0027158Y0043068D01*
X0027200Y0042940D01*
X0027237Y0042812D01*
X0027270Y0042682D01*
X0027300Y0042551D01*
X0027326Y0042419D01*
X0027347Y0042287D01*
X0027365Y0042154D01*
X0027379Y0042020D01*
X0027389Y0041886D01*
X0027395Y0041752D01*
X0027397Y0041618D01*
X0027395Y0041484D01*
X0027389Y0041350D01*
X0027379Y0041216D01*
X0027365Y0041082D01*
X0027347Y0040949D01*
X0027326Y0040817D01*
X0027300Y0040685D01*
X0027270Y0040554D01*
X0027237Y0040424D01*
X0027200Y0040296D01*
X0027158Y0040168D01*
X0027114Y0040041D01*
X0027065Y0039916D01*
X0027013Y0039793D01*
X0026957Y0039671D01*
X0026897Y0039550D01*
X0026834Y0039432D01*
X0026768Y0039315D01*
X0026698Y0039201D01*
X0026625Y0039088D01*
X0026548Y0038978D01*
X0026468Y0038870D01*
X0026385Y0038765D01*
X0026299Y0038662D01*
X0026210Y0038562D01*
X0026118Y0038464D01*
X0026023Y0038369D01*
X0025925Y0038277D01*
X0025825Y0038188D01*
X0025722Y0038102D01*
X0025617Y0038019D01*
X0025509Y0037939D01*
X0025399Y0037862D01*
X0025286Y0037789D01*
X0025172Y0037719D01*
X0025055Y0037653D01*
X0024937Y0037590D01*
X0024816Y0037530D01*
X0024694Y0037474D01*
X0024571Y0037422D01*
X0024446Y0037373D01*
X0024319Y0037329D01*
X0024191Y0037287D01*
X0024063Y0037250D01*
X0023933Y0037217D01*
X0023802Y0037187D01*
X0023670Y0037161D01*
X0023538Y0037140D01*
X0023405Y0037122D01*
X0023271Y0037108D01*
X0023137Y0037098D01*
X0023003Y0037092D01*
X0022869Y0037090D01*
X0022735Y0037092D01*
X0022601Y0037098D01*
X0022467Y0037108D01*
X0022333Y0037122D01*
X0022200Y0037140D01*
X0022068Y0037161D01*
X0021936Y0037187D01*
X0021805Y0037217D01*
X0021675Y0037250D01*
X0021547Y0037287D01*
X0021419Y0037329D01*
X0021292Y0037373D01*
X0021167Y0037422D01*
X0021044Y0037474D01*
X0020922Y0037530D01*
X0020801Y0037590D01*
X0020683Y0037653D01*
X0020566Y0037719D01*
X0020452Y0037789D01*
X0020339Y0037862D01*
X0020229Y0037939D01*
X0020121Y0038019D01*
X0020016Y0038102D01*
X0019913Y0038188D01*
X0019813Y0038277D01*
X0019715Y0038369D01*
X0019620Y0038464D01*
X0019528Y0038562D01*
X0019439Y0038662D01*
X0019353Y0038765D01*
X0019270Y0038870D01*
X0019190Y0038978D01*
X0019113Y0039088D01*
X0019040Y0039201D01*
X0018970Y0039315D01*
X0018904Y0039432D01*
X0018841Y0039550D01*
X0018781Y0039671D01*
X0018725Y0039793D01*
X0018673Y0039916D01*
X0018624Y0040041D01*
X0018580Y0040168D01*
X0018538Y0040296D01*
X0018501Y0040424D01*
X0018468Y0040554D01*
X0018438Y0040685D01*
X0018412Y0040817D01*
X0018391Y0040949D01*
X0018373Y0041082D01*
X0018359Y0041216D01*
X0018349Y0041350D01*
X0018343Y0041484D01*
X0018341Y0041618D01*
X0070074Y0041618D02*
X0070076Y0041752D01*
X0070082Y0041886D01*
X0070092Y0042020D01*
X0070106Y0042154D01*
X0070124Y0042287D01*
X0070145Y0042419D01*
X0070171Y0042551D01*
X0070201Y0042682D01*
X0070234Y0042812D01*
X0070271Y0042940D01*
X0070313Y0043068D01*
X0070357Y0043195D01*
X0070406Y0043320D01*
X0070458Y0043443D01*
X0070514Y0043565D01*
X0070574Y0043686D01*
X0070637Y0043804D01*
X0070703Y0043921D01*
X0070773Y0044035D01*
X0070846Y0044148D01*
X0070923Y0044258D01*
X0071003Y0044366D01*
X0071086Y0044471D01*
X0071172Y0044574D01*
X0071261Y0044674D01*
X0071353Y0044772D01*
X0071448Y0044867D01*
X0071546Y0044959D01*
X0071646Y0045048D01*
X0071749Y0045134D01*
X0071854Y0045217D01*
X0071962Y0045297D01*
X0072072Y0045374D01*
X0072185Y0045447D01*
X0072299Y0045517D01*
X0072416Y0045583D01*
X0072534Y0045646D01*
X0072655Y0045706D01*
X0072777Y0045762D01*
X0072900Y0045814D01*
X0073025Y0045863D01*
X0073152Y0045907D01*
X0073280Y0045949D01*
X0073408Y0045986D01*
X0073538Y0046019D01*
X0073669Y0046049D01*
X0073801Y0046075D01*
X0073933Y0046096D01*
X0074066Y0046114D01*
X0074200Y0046128D01*
X0074334Y0046138D01*
X0074468Y0046144D01*
X0074602Y0046146D01*
X0074736Y0046144D01*
X0074870Y0046138D01*
X0075004Y0046128D01*
X0075138Y0046114D01*
X0075271Y0046096D01*
X0075403Y0046075D01*
X0075535Y0046049D01*
X0075666Y0046019D01*
X0075796Y0045986D01*
X0075924Y0045949D01*
X0076052Y0045907D01*
X0076179Y0045863D01*
X0076304Y0045814D01*
X0076427Y0045762D01*
X0076549Y0045706D01*
X0076670Y0045646D01*
X0076788Y0045583D01*
X0076905Y0045517D01*
X0077019Y0045447D01*
X0077132Y0045374D01*
X0077242Y0045297D01*
X0077350Y0045217D01*
X0077455Y0045134D01*
X0077558Y0045048D01*
X0077658Y0044959D01*
X0077756Y0044867D01*
X0077851Y0044772D01*
X0077943Y0044674D01*
X0078032Y0044574D01*
X0078118Y0044471D01*
X0078201Y0044366D01*
X0078281Y0044258D01*
X0078358Y0044148D01*
X0078431Y0044035D01*
X0078501Y0043921D01*
X0078567Y0043804D01*
X0078630Y0043686D01*
X0078690Y0043565D01*
X0078746Y0043443D01*
X0078798Y0043320D01*
X0078847Y0043195D01*
X0078891Y0043068D01*
X0078933Y0042940D01*
X0078970Y0042812D01*
X0079003Y0042682D01*
X0079033Y0042551D01*
X0079059Y0042419D01*
X0079080Y0042287D01*
X0079098Y0042154D01*
X0079112Y0042020D01*
X0079122Y0041886D01*
X0079128Y0041752D01*
X0079130Y0041618D01*
X0079128Y0041484D01*
X0079122Y0041350D01*
X0079112Y0041216D01*
X0079098Y0041082D01*
X0079080Y0040949D01*
X0079059Y0040817D01*
X0079033Y0040685D01*
X0079003Y0040554D01*
X0078970Y0040424D01*
X0078933Y0040296D01*
X0078891Y0040168D01*
X0078847Y0040041D01*
X0078798Y0039916D01*
X0078746Y0039793D01*
X0078690Y0039671D01*
X0078630Y0039550D01*
X0078567Y0039432D01*
X0078501Y0039315D01*
X0078431Y0039201D01*
X0078358Y0039088D01*
X0078281Y0038978D01*
X0078201Y0038870D01*
X0078118Y0038765D01*
X0078032Y0038662D01*
X0077943Y0038562D01*
X0077851Y0038464D01*
X0077756Y0038369D01*
X0077658Y0038277D01*
X0077558Y0038188D01*
X0077455Y0038102D01*
X0077350Y0038019D01*
X0077242Y0037939D01*
X0077132Y0037862D01*
X0077019Y0037789D01*
X0076905Y0037719D01*
X0076788Y0037653D01*
X0076670Y0037590D01*
X0076549Y0037530D01*
X0076427Y0037474D01*
X0076304Y0037422D01*
X0076179Y0037373D01*
X0076052Y0037329D01*
X0075924Y0037287D01*
X0075796Y0037250D01*
X0075666Y0037217D01*
X0075535Y0037187D01*
X0075403Y0037161D01*
X0075271Y0037140D01*
X0075138Y0037122D01*
X0075004Y0037108D01*
X0074870Y0037098D01*
X0074736Y0037092D01*
X0074602Y0037090D01*
X0074468Y0037092D01*
X0074334Y0037098D01*
X0074200Y0037108D01*
X0074066Y0037122D01*
X0073933Y0037140D01*
X0073801Y0037161D01*
X0073669Y0037187D01*
X0073538Y0037217D01*
X0073408Y0037250D01*
X0073280Y0037287D01*
X0073152Y0037329D01*
X0073025Y0037373D01*
X0072900Y0037422D01*
X0072777Y0037474D01*
X0072655Y0037530D01*
X0072534Y0037590D01*
X0072416Y0037653D01*
X0072299Y0037719D01*
X0072185Y0037789D01*
X0072072Y0037862D01*
X0071962Y0037939D01*
X0071854Y0038019D01*
X0071749Y0038102D01*
X0071646Y0038188D01*
X0071546Y0038277D01*
X0071448Y0038369D01*
X0071353Y0038464D01*
X0071261Y0038562D01*
X0071172Y0038662D01*
X0071086Y0038765D01*
X0071003Y0038870D01*
X0070923Y0038978D01*
X0070846Y0039088D01*
X0070773Y0039201D01*
X0070703Y0039315D01*
X0070637Y0039432D01*
X0070574Y0039550D01*
X0070514Y0039671D01*
X0070458Y0039793D01*
X0070406Y0039916D01*
X0070357Y0040041D01*
X0070313Y0040168D01*
X0070271Y0040296D01*
X0070234Y0040424D01*
X0070201Y0040554D01*
X0070171Y0040685D01*
X0070145Y0040817D01*
X0070124Y0040949D01*
X0070106Y0041082D01*
X0070092Y0041216D01*
X0070082Y0041350D01*
X0070076Y0041484D01*
X0070074Y0041618D01*
D11*
X0068732Y0030517D02*
X0065663Y0030517D01*
X0065663Y0025913D01*
X0065663Y0028215D02*
X0067197Y0028215D01*
X0070267Y0028982D02*
X0071801Y0030517D01*
X0071801Y0025913D01*
X0070267Y0025913D02*
X0073336Y0025913D01*
X0100153Y0050624D02*
X0100153Y0053026D01*
X0100153Y0051825D02*
X0103756Y0051825D01*
X0103155Y0054308D02*
X0101954Y0054308D01*
X0101354Y0054908D01*
X0101354Y0056109D01*
X0101954Y0056710D01*
X0103155Y0056710D01*
X0103756Y0056109D01*
X0103756Y0054908D01*
X0103155Y0054308D01*
X0101354Y0057991D02*
X0101354Y0059192D01*
X0100753Y0058591D02*
X0103155Y0058591D01*
X0103756Y0059192D01*
X0103756Y0060446D02*
X0100153Y0060446D01*
X0101354Y0061047D02*
X0101354Y0062248D01*
X0101954Y0062848D01*
X0103756Y0062848D01*
X0103756Y0064129D02*
X0103756Y0065931D01*
X0103155Y0066531D01*
X0101954Y0066531D01*
X0101354Y0065931D01*
X0101354Y0064129D01*
X0104957Y0064129D01*
X0103155Y0067812D02*
X0101954Y0067812D01*
X0101354Y0068413D01*
X0101354Y0069614D01*
X0101954Y0070214D01*
X0102555Y0070214D01*
X0102555Y0067812D01*
X0103155Y0067812D02*
X0103756Y0068413D01*
X0103756Y0069614D01*
X0103155Y0072096D02*
X0103756Y0072697D01*
X0103155Y0072096D02*
X0100753Y0072096D01*
X0101354Y0071496D02*
X0101354Y0072697D01*
X0101354Y0073951D02*
X0101354Y0074552D01*
X0103756Y0074552D01*
X0103756Y0075152D02*
X0103756Y0073951D01*
X0100153Y0074552D02*
X0099552Y0074552D01*
X0100753Y0080090D02*
X0101354Y0080090D01*
X0101954Y0080690D01*
X0101954Y0081891D01*
X0102555Y0082492D01*
X0103155Y0082492D01*
X0103756Y0081891D01*
X0103756Y0080690D01*
X0103155Y0080090D01*
X0100753Y0080090D02*
X0100153Y0080690D01*
X0100153Y0081891D01*
X0100753Y0082492D01*
X0101354Y0083773D02*
X0101354Y0086175D01*
X0103756Y0083773D01*
X0103756Y0086175D01*
X0103756Y0087456D02*
X0103756Y0088657D01*
X0103756Y0088056D02*
X0101354Y0088056D01*
X0101354Y0087456D01*
X0100153Y0088056D02*
X0099552Y0088056D01*
X0100153Y0089911D02*
X0100153Y0090512D01*
X0103756Y0090512D01*
X0103756Y0091112D02*
X0103756Y0089911D01*
X0103155Y0092367D02*
X0102555Y0092967D01*
X0102555Y0094769D01*
X0101954Y0094769D02*
X0103756Y0094769D01*
X0103756Y0092967D01*
X0103155Y0092367D01*
X0101354Y0092967D02*
X0101354Y0094168D01*
X0101954Y0094769D01*
X0101354Y0096050D02*
X0103756Y0096050D01*
X0102555Y0096050D02*
X0101354Y0097251D01*
X0101354Y0097851D01*
X0101954Y0099119D02*
X0101354Y0099720D01*
X0101354Y0101521D01*
X0100153Y0101521D02*
X0103756Y0101521D01*
X0103756Y0099720D01*
X0103155Y0099119D01*
X0101954Y0099119D01*
X0073810Y0081126D02*
X0073810Y0080359D01*
X0073810Y0078824D02*
X0073043Y0078824D01*
X0073810Y0078824D02*
X0073810Y0075755D01*
X0073043Y0075755D02*
X0074577Y0075755D01*
X0071508Y0075755D02*
X0071508Y0078057D01*
X0070741Y0078824D01*
X0068439Y0078824D01*
X0068439Y0075755D01*
X0066904Y0075755D02*
X0065370Y0075755D01*
X0066137Y0075755D02*
X0066137Y0078824D01*
X0065370Y0078824D01*
X0066137Y0080359D02*
X0066137Y0081126D01*
X0063835Y0080359D02*
X0063835Y0075755D01*
X0062300Y0078824D02*
X0063835Y0080359D01*
X0062300Y0078824D02*
X0060766Y0080359D01*
X0060766Y0075755D01*
X0054627Y0078824D02*
X0053860Y0078824D01*
X0052325Y0077290D01*
X0052325Y0078824D02*
X0052325Y0075755D01*
X0050790Y0077290D02*
X0047721Y0077290D01*
X0047721Y0078057D02*
X0047721Y0076522D01*
X0048488Y0075755D01*
X0050023Y0075755D01*
X0050790Y0077290D02*
X0050790Y0078057D01*
X0050023Y0078824D01*
X0048488Y0078824D01*
X0047721Y0078057D01*
X0046187Y0078824D02*
X0046187Y0074988D01*
X0045419Y0074220D01*
X0044652Y0074220D01*
X0043885Y0075755D02*
X0043117Y0076522D01*
X0043117Y0078824D01*
X0041583Y0078057D02*
X0041583Y0075755D01*
X0039281Y0075755D01*
X0038513Y0076522D01*
X0039281Y0077290D01*
X0041583Y0077290D01*
X0041583Y0078057D02*
X0040815Y0078824D01*
X0039281Y0078824D01*
X0036211Y0080359D02*
X0036211Y0075755D01*
X0035444Y0075755D02*
X0036979Y0075755D01*
X0033909Y0078057D02*
X0033142Y0077290D01*
X0030840Y0077290D01*
X0030840Y0075755D02*
X0030840Y0080359D01*
X0033142Y0080359D01*
X0033909Y0079592D01*
X0033909Y0078057D01*
X0035444Y0080359D02*
X0036211Y0080359D01*
X0029305Y0080359D02*
X0026236Y0080359D01*
X0026236Y0075755D01*
X0024702Y0076522D02*
X0024702Y0079592D01*
X0023934Y0080359D01*
X0021632Y0080359D01*
X0021632Y0075755D01*
X0023934Y0075755D01*
X0024702Y0076522D01*
X0026236Y0078057D02*
X0027771Y0078057D01*
X0043885Y0075755D02*
X0046187Y0075755D01*
X0050567Y0131302D02*
X0051768Y0131302D01*
X0052369Y0131903D01*
X0053650Y0131903D02*
X0054250Y0131302D01*
X0055451Y0131302D01*
X0056052Y0131903D01*
X0056052Y0134305D01*
X0055451Y0134905D01*
X0054250Y0134905D01*
X0053650Y0134305D01*
X0053650Y0133704D01*
X0054250Y0133104D01*
X0056052Y0133104D01*
X0052369Y0134305D02*
X0051768Y0134905D01*
X0050567Y0134905D01*
X0049967Y0134305D01*
X0049967Y0131903D01*
X0050567Y0131302D01*
X0071164Y0149558D02*
X0071164Y0151860D01*
X0071931Y0152628D01*
X0075000Y0152628D01*
X0075768Y0151860D01*
X0075768Y0149558D01*
X0071164Y0149558D01*
X0073466Y0154162D02*
X0073466Y0157231D01*
X0075768Y0156464D02*
X0071164Y0156464D01*
X0073466Y0154162D01*
X0074905Y0139670D02*
X0077207Y0139670D01*
X0077974Y0138903D01*
X0077974Y0137368D01*
X0077207Y0136601D01*
X0074905Y0136601D01*
X0076439Y0136601D02*
X0077974Y0135066D01*
X0079509Y0135833D02*
X0079509Y0136601D01*
X0080276Y0137368D01*
X0081811Y0137368D01*
X0082578Y0136601D01*
X0082578Y0135833D01*
X0081811Y0135066D01*
X0080276Y0135066D01*
X0079509Y0135833D01*
X0080276Y0137368D02*
X0079509Y0138135D01*
X0079509Y0138903D01*
X0080276Y0139670D01*
X0081811Y0139670D01*
X0082578Y0138903D01*
X0082578Y0138135D01*
X0081811Y0137368D01*
X0074905Y0135066D02*
X0074905Y0139670D01*
X0092542Y0149743D02*
X0094844Y0149743D01*
X0095611Y0150511D01*
X0095611Y0153580D01*
X0094844Y0154347D01*
X0092542Y0154347D01*
X0092542Y0149743D01*
X0097146Y0150511D02*
X0097913Y0149743D01*
X0099448Y0149743D01*
X0100215Y0150511D01*
X0100215Y0151278D01*
X0099448Y0152045D01*
X0098680Y0152045D01*
X0099448Y0152045D02*
X0100215Y0152813D01*
X0100215Y0153580D01*
X0099448Y0154347D01*
X0097913Y0154347D01*
X0097146Y0153580D01*
X0101354Y0061047D02*
X0101954Y0060446D01*
D12*
X0076086Y0142563D02*
X0076086Y0147287D01*
X0072149Y0144925D01*
X0076086Y0142563D01*
X0088539Y0150228D02*
X0086176Y0154165D01*
X0090901Y0154165D01*
X0088539Y0150228D01*
X0105379Y0149207D02*
X0119493Y0149207D01*
X0111801Y0150294D02*
X0111801Y0152794D01*
X0105379Y0161195D02*
X0119493Y0161195D01*
X0065074Y0160535D02*
X0065074Y0155535D01*
X0017948Y0128705D02*
X0017948Y0110594D01*
X0017357Y0110594D01*
X0016176Y0117287D02*
X0008302Y0117287D01*
X0007121Y0110594D02*
X0006531Y0110594D01*
X0006531Y0128705D01*
X0007121Y0128705D01*
X0017357Y0128705D02*
X0017948Y0128705D01*
X0005074Y0155535D02*
X0005074Y0160535D01*
D13*
X0110551Y0151544D02*
X0113051Y0151544D01*
D14*
X0108999Y0155201D03*
D15*
X0111533Y0156206D02*
X0113234Y0154505D01*
X0113234Y0156773D01*
X0114935Y0156206D02*
X0111533Y0156206D01*
X0112100Y0153090D02*
X0111533Y0152523D01*
X0111533Y0151389D01*
X0112100Y0150822D01*
X0114368Y0150822D01*
X0114935Y0151389D01*
X0114935Y0152523D01*
X0114368Y0153090D01*
D16*
X0113224Y0131303D02*
X0113224Y0013193D01*
X0120704Y0013193D01*
X0120704Y0131303D01*
X0113224Y0131303D01*
X0120704Y0131303D02*
X0128893Y0131303D01*
X0128893Y0129335D01*
X0127712Y0128154D01*
X0127712Y0126579D01*
X0128893Y0125398D01*
X0128893Y0121461D01*
X0127712Y0120280D01*
X0127712Y0118705D01*
X0128893Y0117524D01*
X0128893Y0113587D01*
X0127712Y0112406D01*
X0127712Y0110831D01*
X0128893Y0109650D01*
X0128893Y0105713D01*
X0127712Y0104531D01*
X0127712Y0102957D01*
X0128893Y0101776D01*
X0128893Y0097839D01*
X0127712Y0096657D01*
X0127712Y0095083D01*
X0128893Y0093902D01*
X0128893Y0089965D01*
X0127712Y0088783D01*
X0127712Y0087209D01*
X0128893Y0086028D01*
X0128893Y0082091D01*
X0127712Y0080909D01*
X0127712Y0079335D01*
X0128893Y0078154D01*
X0128893Y0074217D01*
X0127712Y0073035D01*
X0127712Y0071461D01*
X0128893Y0070280D01*
X0128893Y0066343D01*
X0127712Y0065161D01*
X0127712Y0063587D01*
X0128893Y0062406D01*
X0128893Y0058469D01*
X0127712Y0057287D01*
X0127712Y0055713D01*
X0128893Y0054531D01*
X0128893Y0050594D01*
X0127712Y0049413D01*
X0127712Y0047839D01*
X0128893Y0046657D01*
X0128893Y0042720D01*
X0127712Y0041539D01*
X0127712Y0039965D01*
X0128893Y0038783D01*
X0128893Y0034846D01*
X0127712Y0033665D01*
X0127712Y0032091D01*
X0128893Y0030909D01*
X0128893Y0026972D01*
X0127712Y0025791D01*
X0127712Y0024217D01*
X0128893Y0023035D01*
X0128893Y0019098D01*
X0127712Y0017917D01*
X0127712Y0016343D01*
X0128893Y0015161D01*
X0128893Y0013193D01*
X0120704Y0013193D01*
X0088932Y0015555D02*
X0078932Y0015555D01*
X0078932Y0013055D01*
X0068932Y0013055D01*
X0068932Y0005555D01*
X0021432Y0005555D01*
X0021432Y0015555D01*
X0018932Y0015555D01*
X0018932Y0070555D01*
X0078932Y0070555D01*
X0078932Y0015555D01*
X0088932Y0015555D02*
X0088932Y0095555D01*
X0008932Y0095555D01*
X0008932Y0015555D01*
X0018932Y0015555D01*
X0021432Y0015555D02*
X0061432Y0015555D01*
X0068932Y0013055D01*
X0067008Y0019648D02*
X0067008Y0041698D01*
X0053533Y0041698D02*
X0053533Y0019648D01*
X0028297Y0092035D02*
X0026497Y0092035D01*
X0026497Y0094035D01*
X0028297Y0094035D01*
X0028297Y0092035D01*
X0062436Y0115516D02*
X0064405Y0115516D01*
X0065586Y0116697D01*
X0067161Y0116697D01*
X0068342Y0115516D01*
X0072279Y0115516D01*
X0073460Y0116697D01*
X0075035Y0116697D01*
X0076216Y0115516D01*
X0080153Y0115516D01*
X0081334Y0116697D01*
X0082909Y0116697D01*
X0084090Y0115516D01*
X0088027Y0115516D01*
X0089208Y0116697D01*
X0090783Y0116697D01*
X0091964Y0115516D01*
X0095901Y0115516D01*
X0097082Y0116697D01*
X0098657Y0116697D01*
X0099838Y0115516D01*
X0101806Y0115516D01*
X0101806Y0123705D01*
X0062436Y0123705D01*
X0062436Y0115516D01*
X0062436Y0123705D02*
X0062436Y0131185D01*
X0101806Y0131185D01*
X0101806Y0123705D01*
X0055541Y0137547D02*
X0055541Y0139547D01*
X0053741Y0139547D01*
X0053741Y0137547D01*
X0055541Y0137547D01*
X0021605Y0143025D02*
X0018602Y0143025D01*
X0020103Y0143025D02*
X0020103Y0147529D01*
X0018602Y0146027D01*
X0017001Y0145277D02*
X0017001Y0146778D01*
X0016250Y0147529D01*
X0013998Y0147529D01*
X0013998Y0143025D01*
X0013998Y0144526D02*
X0016250Y0144526D01*
X0017001Y0145277D01*
X0012397Y0147529D02*
X0010895Y0147529D01*
X0011646Y0147529D02*
X0011646Y0143775D01*
X0010895Y0143025D01*
X0010145Y0143025D01*
X0009394Y0143775D01*
D17*
X0009295Y0120895D02*
X0010746Y0120895D01*
X0011230Y0120411D01*
X0011230Y0118476D01*
X0010746Y0117993D01*
X0009295Y0117993D01*
X0009295Y0120895D01*
X0012241Y0119927D02*
X0013209Y0120895D01*
X0013209Y0117993D01*
X0014176Y0117993D02*
X0012241Y0117993D01*
X0031805Y0118910D02*
X0034707Y0118910D01*
X0034707Y0117943D02*
X0034707Y0119878D01*
X0032773Y0117943D02*
X0031805Y0118910D01*
X0031805Y0116931D02*
X0034224Y0116931D01*
X0034707Y0116448D01*
X0034707Y0115480D01*
X0034224Y0114996D01*
X0031805Y0114996D01*
X0032651Y0136040D02*
X0031684Y0137007D01*
X0032167Y0137007D02*
X0030716Y0137007D01*
X0030716Y0136040D02*
X0030716Y0138942D01*
X0032167Y0138942D01*
X0032651Y0138458D01*
X0032651Y0137491D01*
X0032167Y0137007D01*
X0033663Y0136040D02*
X0035598Y0136040D01*
X0034630Y0136040D02*
X0034630Y0138942D01*
X0033663Y0137975D01*
X0042370Y0142969D02*
X0042370Y0145871D01*
X0043821Y0145871D01*
X0044305Y0145388D01*
X0044305Y0144420D01*
X0043821Y0143936D01*
X0042370Y0143936D01*
X0043337Y0143936D02*
X0044305Y0142969D01*
X0045316Y0142969D02*
X0047251Y0142969D01*
X0046284Y0142969D02*
X0046284Y0145871D01*
X0045316Y0144904D01*
X0048263Y0145388D02*
X0048263Y0143453D01*
X0050198Y0145388D01*
X0050198Y0143453D01*
X0049714Y0142969D01*
X0048746Y0142969D01*
X0048263Y0143453D01*
X0048263Y0145388D02*
X0048746Y0145871D01*
X0049714Y0145871D01*
X0050198Y0145388D01*
X0060545Y0118520D02*
X0061029Y0118520D01*
X0062964Y0116585D01*
X0063448Y0116585D01*
X0063448Y0115573D02*
X0062480Y0114606D01*
X0062480Y0115089D02*
X0062480Y0113638D01*
X0063448Y0113638D02*
X0060545Y0113638D01*
X0060545Y0115089D01*
X0061029Y0115573D01*
X0061996Y0115573D01*
X0062480Y0115089D01*
X0060545Y0116585D02*
X0060545Y0118520D01*
X0077422Y0112278D02*
X0077422Y0109375D01*
X0077422Y0110343D02*
X0078873Y0110343D01*
X0079357Y0110826D01*
X0079357Y0111794D01*
X0078873Y0112278D01*
X0077422Y0112278D01*
X0078389Y0110343D02*
X0079357Y0109375D01*
X0080368Y0109859D02*
X0080852Y0109375D01*
X0081819Y0109375D01*
X0082303Y0109859D01*
X0082303Y0111794D01*
X0081819Y0112278D01*
X0080852Y0112278D01*
X0080368Y0111794D01*
X0080368Y0111310D01*
X0080852Y0110826D01*
X0082303Y0110826D01*
X0093944Y0123481D02*
X0093944Y0126383D01*
X0095396Y0126383D01*
X0095879Y0125899D01*
X0095879Y0124932D01*
X0095396Y0124448D01*
X0093944Y0124448D01*
X0094912Y0124448D02*
X0095879Y0123481D01*
X0096891Y0123964D02*
X0097375Y0123481D01*
X0098342Y0123481D01*
X0098826Y0123964D01*
X0098826Y0124448D01*
X0098342Y0124932D01*
X0096891Y0124932D01*
X0096891Y0123964D01*
X0096891Y0124932D02*
X0097858Y0125899D01*
X0098826Y0126383D01*
X0099373Y0131823D02*
X0098138Y0131823D01*
X0097521Y0132440D01*
X0098138Y0133675D02*
X0099373Y0133675D01*
X0099990Y0133058D01*
X0099990Y0132440D01*
X0099373Y0131823D01*
X0098138Y0133675D02*
X0097521Y0134292D01*
X0097521Y0134909D01*
X0098138Y0135526D01*
X0099373Y0135526D01*
X0099990Y0134909D01*
X0101204Y0135526D02*
X0101204Y0131823D01*
X0101204Y0133058D02*
X0103673Y0135526D01*
X0104887Y0134909D02*
X0105505Y0135526D01*
X0106739Y0135526D01*
X0107356Y0134909D01*
X0107356Y0134292D01*
X0104887Y0131823D01*
X0107356Y0131823D01*
X0103673Y0131823D02*
X0101821Y0133675D01*
X0029303Y0088656D02*
X0028336Y0088172D01*
X0027368Y0087204D01*
X0028819Y0087204D01*
X0029303Y0086721D01*
X0029303Y0086237D01*
X0028819Y0085753D01*
X0027852Y0085753D01*
X0027368Y0086237D01*
X0027368Y0087204D01*
X0026357Y0086237D02*
X0025873Y0085753D01*
X0024905Y0085753D01*
X0024422Y0086237D01*
X0024422Y0088172D01*
X0024905Y0088656D01*
X0025873Y0088656D01*
X0026357Y0088172D01*
X0108331Y0026288D02*
X0112034Y0026288D01*
X0112034Y0027522D02*
X0112034Y0025053D01*
X0112034Y0023839D02*
X0110183Y0021988D01*
X0110800Y0021370D02*
X0108331Y0023839D01*
X0109565Y0025053D02*
X0108331Y0026288D01*
X0108331Y0021370D02*
X0112034Y0021370D01*
X0111417Y0020156D02*
X0112034Y0019539D01*
X0112034Y0018304D01*
X0111417Y0017687D01*
X0110183Y0018304D02*
X0110183Y0019539D01*
X0110800Y0020156D01*
X0111417Y0020156D01*
X0110183Y0018304D02*
X0109565Y0017687D01*
X0108948Y0017687D01*
X0108331Y0018304D01*
X0108331Y0019539D01*
X0108948Y0020156D01*
D18*
X0063420Y0024374D02*
X0063420Y0036972D01*
X0057121Y0036972D02*
X0057121Y0024374D01*
D19*
X0060271Y0030673D03*
D20*
X0060271Y0030870D03*
D21*
X0112830Y0009256D02*
X0130861Y0009256D01*
X0130861Y0015161D01*
X0128893Y0015161D01*
X0112830Y0009256D02*
X0112830Y0135240D01*
X0130861Y0135240D01*
X0130861Y0129335D01*
X0128893Y0129335D01*
X0105743Y0131579D02*
X0105743Y0113547D01*
X0099838Y0113547D01*
X0099838Y0115516D01*
X0105743Y0131579D02*
X0058499Y0131579D01*
X0058499Y0113547D01*
X0064405Y0113547D01*
X0064405Y0115516D01*
D22*
X0020160Y0124387D02*
X0020162Y0124431D01*
X0020168Y0124475D01*
X0020178Y0124518D01*
X0020191Y0124560D01*
X0020208Y0124601D01*
X0020229Y0124640D01*
X0020253Y0124677D01*
X0020280Y0124712D01*
X0020310Y0124744D01*
X0020343Y0124774D01*
X0020379Y0124800D01*
X0020416Y0124824D01*
X0020456Y0124843D01*
X0020497Y0124860D01*
X0020540Y0124872D01*
X0020583Y0124881D01*
X0020627Y0124886D01*
X0020671Y0124887D01*
X0020715Y0124884D01*
X0020759Y0124877D01*
X0020802Y0124866D01*
X0020844Y0124852D01*
X0020884Y0124834D01*
X0020923Y0124812D01*
X0020959Y0124788D01*
X0020993Y0124760D01*
X0021025Y0124729D01*
X0021054Y0124695D01*
X0021080Y0124659D01*
X0021102Y0124621D01*
X0021121Y0124581D01*
X0021136Y0124539D01*
X0021148Y0124497D01*
X0021156Y0124453D01*
X0021160Y0124409D01*
X0021160Y0124365D01*
X0021156Y0124321D01*
X0021148Y0124277D01*
X0021136Y0124235D01*
X0021121Y0124193D01*
X0021102Y0124153D01*
X0021080Y0124115D01*
X0021054Y0124079D01*
X0021025Y0124045D01*
X0020993Y0124014D01*
X0020959Y0123986D01*
X0020923Y0123962D01*
X0020884Y0123940D01*
X0020844Y0123922D01*
X0020802Y0123908D01*
X0020759Y0123897D01*
X0020715Y0123890D01*
X0020671Y0123887D01*
X0020627Y0123888D01*
X0020583Y0123893D01*
X0020540Y0123902D01*
X0020497Y0123914D01*
X0020456Y0123931D01*
X0020416Y0123950D01*
X0020379Y0123974D01*
X0020343Y0124000D01*
X0020310Y0124030D01*
X0020280Y0124062D01*
X0020253Y0124097D01*
X0020229Y0124134D01*
X0020208Y0124173D01*
X0020191Y0124214D01*
X0020178Y0124256D01*
X0020168Y0124299D01*
X0020162Y0124343D01*
X0020160Y0124387D01*
D23*
X0027260Y0123187D02*
X0027260Y0103987D01*
X0039660Y0103987D01*
X0039660Y0123187D01*
X0027260Y0123187D01*
D24*
X0088539Y0149497D03*
D25*
X0071417Y0144925D03*
M02*
