G75*
%MOIN*%
%OFA0B0*%
%FSLAX25Y25*%
%IPPOS*%
%LPD*%
%AMOC8*
5,1,8,0,0,1.08239X$1,22.5*
%
%ADD10C,0.00000*%
%ADD11R,0.10400X0.06400*%
%ADD12R,0.06400X0.10400*%
%ADD13R,0.04200X0.03400*%
%ADD14R,0.07100X0.04900*%
%ADD15R,0.08274X0.08274*%
%ADD16R,0.09200X0.05200*%
%ADD17R,0.09061X0.14573*%
%ADD18R,0.04731X0.04337*%
%ADD19R,0.04337X0.04731*%
%ADD20C,0.04762*%
%ADD21OC8,0.07000*%
%ADD22R,0.08200X0.02600*%
%ADD23C,0.06140*%
%ADD24C,0.09455*%
%ADD25C,0.07800*%
D10*
X0002200Y0012366D02*
X0002200Y0173783D01*
X0136255Y0173980D01*
X0136255Y0012563D01*
X0002200Y0012366D01*
X0018341Y0041618D02*
X0018343Y0041752D01*
X0018349Y0041886D01*
X0018359Y0042020D01*
X0018373Y0042154D01*
X0018391Y0042287D01*
X0018412Y0042419D01*
X0018438Y0042551D01*
X0018468Y0042682D01*
X0018501Y0042812D01*
X0018538Y0042940D01*
X0018580Y0043068D01*
X0018624Y0043195D01*
X0018673Y0043320D01*
X0018725Y0043443D01*
X0018781Y0043565D01*
X0018841Y0043686D01*
X0018904Y0043804D01*
X0018970Y0043921D01*
X0019040Y0044035D01*
X0019113Y0044148D01*
X0019190Y0044258D01*
X0019270Y0044366D01*
X0019353Y0044471D01*
X0019439Y0044574D01*
X0019528Y0044674D01*
X0019620Y0044772D01*
X0019715Y0044867D01*
X0019813Y0044959D01*
X0019913Y0045048D01*
X0020016Y0045134D01*
X0020121Y0045217D01*
X0020229Y0045297D01*
X0020339Y0045374D01*
X0020452Y0045447D01*
X0020566Y0045517D01*
X0020683Y0045583D01*
X0020801Y0045646D01*
X0020922Y0045706D01*
X0021044Y0045762D01*
X0021167Y0045814D01*
X0021292Y0045863D01*
X0021419Y0045907D01*
X0021547Y0045949D01*
X0021675Y0045986D01*
X0021805Y0046019D01*
X0021936Y0046049D01*
X0022068Y0046075D01*
X0022200Y0046096D01*
X0022333Y0046114D01*
X0022467Y0046128D01*
X0022601Y0046138D01*
X0022735Y0046144D01*
X0022869Y0046146D01*
X0023003Y0046144D01*
X0023137Y0046138D01*
X0023271Y0046128D01*
X0023405Y0046114D01*
X0023538Y0046096D01*
X0023670Y0046075D01*
X0023802Y0046049D01*
X0023933Y0046019D01*
X0024063Y0045986D01*
X0024191Y0045949D01*
X0024319Y0045907D01*
X0024446Y0045863D01*
X0024571Y0045814D01*
X0024694Y0045762D01*
X0024816Y0045706D01*
X0024937Y0045646D01*
X0025055Y0045583D01*
X0025172Y0045517D01*
X0025286Y0045447D01*
X0025399Y0045374D01*
X0025509Y0045297D01*
X0025617Y0045217D01*
X0025722Y0045134D01*
X0025825Y0045048D01*
X0025925Y0044959D01*
X0026023Y0044867D01*
X0026118Y0044772D01*
X0026210Y0044674D01*
X0026299Y0044574D01*
X0026385Y0044471D01*
X0026468Y0044366D01*
X0026548Y0044258D01*
X0026625Y0044148D01*
X0026698Y0044035D01*
X0026768Y0043921D01*
X0026834Y0043804D01*
X0026897Y0043686D01*
X0026957Y0043565D01*
X0027013Y0043443D01*
X0027065Y0043320D01*
X0027114Y0043195D01*
X0027158Y0043068D01*
X0027200Y0042940D01*
X0027237Y0042812D01*
X0027270Y0042682D01*
X0027300Y0042551D01*
X0027326Y0042419D01*
X0027347Y0042287D01*
X0027365Y0042154D01*
X0027379Y0042020D01*
X0027389Y0041886D01*
X0027395Y0041752D01*
X0027397Y0041618D01*
X0027395Y0041484D01*
X0027389Y0041350D01*
X0027379Y0041216D01*
X0027365Y0041082D01*
X0027347Y0040949D01*
X0027326Y0040817D01*
X0027300Y0040685D01*
X0027270Y0040554D01*
X0027237Y0040424D01*
X0027200Y0040296D01*
X0027158Y0040168D01*
X0027114Y0040041D01*
X0027065Y0039916D01*
X0027013Y0039793D01*
X0026957Y0039671D01*
X0026897Y0039550D01*
X0026834Y0039432D01*
X0026768Y0039315D01*
X0026698Y0039201D01*
X0026625Y0039088D01*
X0026548Y0038978D01*
X0026468Y0038870D01*
X0026385Y0038765D01*
X0026299Y0038662D01*
X0026210Y0038562D01*
X0026118Y0038464D01*
X0026023Y0038369D01*
X0025925Y0038277D01*
X0025825Y0038188D01*
X0025722Y0038102D01*
X0025617Y0038019D01*
X0025509Y0037939D01*
X0025399Y0037862D01*
X0025286Y0037789D01*
X0025172Y0037719D01*
X0025055Y0037653D01*
X0024937Y0037590D01*
X0024816Y0037530D01*
X0024694Y0037474D01*
X0024571Y0037422D01*
X0024446Y0037373D01*
X0024319Y0037329D01*
X0024191Y0037287D01*
X0024063Y0037250D01*
X0023933Y0037217D01*
X0023802Y0037187D01*
X0023670Y0037161D01*
X0023538Y0037140D01*
X0023405Y0037122D01*
X0023271Y0037108D01*
X0023137Y0037098D01*
X0023003Y0037092D01*
X0022869Y0037090D01*
X0022735Y0037092D01*
X0022601Y0037098D01*
X0022467Y0037108D01*
X0022333Y0037122D01*
X0022200Y0037140D01*
X0022068Y0037161D01*
X0021936Y0037187D01*
X0021805Y0037217D01*
X0021675Y0037250D01*
X0021547Y0037287D01*
X0021419Y0037329D01*
X0021292Y0037373D01*
X0021167Y0037422D01*
X0021044Y0037474D01*
X0020922Y0037530D01*
X0020801Y0037590D01*
X0020683Y0037653D01*
X0020566Y0037719D01*
X0020452Y0037789D01*
X0020339Y0037862D01*
X0020229Y0037939D01*
X0020121Y0038019D01*
X0020016Y0038102D01*
X0019913Y0038188D01*
X0019813Y0038277D01*
X0019715Y0038369D01*
X0019620Y0038464D01*
X0019528Y0038562D01*
X0019439Y0038662D01*
X0019353Y0038765D01*
X0019270Y0038870D01*
X0019190Y0038978D01*
X0019113Y0039088D01*
X0019040Y0039201D01*
X0018970Y0039315D01*
X0018904Y0039432D01*
X0018841Y0039550D01*
X0018781Y0039671D01*
X0018725Y0039793D01*
X0018673Y0039916D01*
X0018624Y0040041D01*
X0018580Y0040168D01*
X0018538Y0040296D01*
X0018501Y0040424D01*
X0018468Y0040554D01*
X0018438Y0040685D01*
X0018412Y0040817D01*
X0018391Y0040949D01*
X0018373Y0041082D01*
X0018359Y0041216D01*
X0018349Y0041350D01*
X0018343Y0041484D01*
X0018341Y0041618D01*
X0070074Y0041618D02*
X0070076Y0041752D01*
X0070082Y0041886D01*
X0070092Y0042020D01*
X0070106Y0042154D01*
X0070124Y0042287D01*
X0070145Y0042419D01*
X0070171Y0042551D01*
X0070201Y0042682D01*
X0070234Y0042812D01*
X0070271Y0042940D01*
X0070313Y0043068D01*
X0070357Y0043195D01*
X0070406Y0043320D01*
X0070458Y0043443D01*
X0070514Y0043565D01*
X0070574Y0043686D01*
X0070637Y0043804D01*
X0070703Y0043921D01*
X0070773Y0044035D01*
X0070846Y0044148D01*
X0070923Y0044258D01*
X0071003Y0044366D01*
X0071086Y0044471D01*
X0071172Y0044574D01*
X0071261Y0044674D01*
X0071353Y0044772D01*
X0071448Y0044867D01*
X0071546Y0044959D01*
X0071646Y0045048D01*
X0071749Y0045134D01*
X0071854Y0045217D01*
X0071962Y0045297D01*
X0072072Y0045374D01*
X0072185Y0045447D01*
X0072299Y0045517D01*
X0072416Y0045583D01*
X0072534Y0045646D01*
X0072655Y0045706D01*
X0072777Y0045762D01*
X0072900Y0045814D01*
X0073025Y0045863D01*
X0073152Y0045907D01*
X0073280Y0045949D01*
X0073408Y0045986D01*
X0073538Y0046019D01*
X0073669Y0046049D01*
X0073801Y0046075D01*
X0073933Y0046096D01*
X0074066Y0046114D01*
X0074200Y0046128D01*
X0074334Y0046138D01*
X0074468Y0046144D01*
X0074602Y0046146D01*
X0074736Y0046144D01*
X0074870Y0046138D01*
X0075004Y0046128D01*
X0075138Y0046114D01*
X0075271Y0046096D01*
X0075403Y0046075D01*
X0075535Y0046049D01*
X0075666Y0046019D01*
X0075796Y0045986D01*
X0075924Y0045949D01*
X0076052Y0045907D01*
X0076179Y0045863D01*
X0076304Y0045814D01*
X0076427Y0045762D01*
X0076549Y0045706D01*
X0076670Y0045646D01*
X0076788Y0045583D01*
X0076905Y0045517D01*
X0077019Y0045447D01*
X0077132Y0045374D01*
X0077242Y0045297D01*
X0077350Y0045217D01*
X0077455Y0045134D01*
X0077558Y0045048D01*
X0077658Y0044959D01*
X0077756Y0044867D01*
X0077851Y0044772D01*
X0077943Y0044674D01*
X0078032Y0044574D01*
X0078118Y0044471D01*
X0078201Y0044366D01*
X0078281Y0044258D01*
X0078358Y0044148D01*
X0078431Y0044035D01*
X0078501Y0043921D01*
X0078567Y0043804D01*
X0078630Y0043686D01*
X0078690Y0043565D01*
X0078746Y0043443D01*
X0078798Y0043320D01*
X0078847Y0043195D01*
X0078891Y0043068D01*
X0078933Y0042940D01*
X0078970Y0042812D01*
X0079003Y0042682D01*
X0079033Y0042551D01*
X0079059Y0042419D01*
X0079080Y0042287D01*
X0079098Y0042154D01*
X0079112Y0042020D01*
X0079122Y0041886D01*
X0079128Y0041752D01*
X0079130Y0041618D01*
X0079128Y0041484D01*
X0079122Y0041350D01*
X0079112Y0041216D01*
X0079098Y0041082D01*
X0079080Y0040949D01*
X0079059Y0040817D01*
X0079033Y0040685D01*
X0079003Y0040554D01*
X0078970Y0040424D01*
X0078933Y0040296D01*
X0078891Y0040168D01*
X0078847Y0040041D01*
X0078798Y0039916D01*
X0078746Y0039793D01*
X0078690Y0039671D01*
X0078630Y0039550D01*
X0078567Y0039432D01*
X0078501Y0039315D01*
X0078431Y0039201D01*
X0078358Y0039088D01*
X0078281Y0038978D01*
X0078201Y0038870D01*
X0078118Y0038765D01*
X0078032Y0038662D01*
X0077943Y0038562D01*
X0077851Y0038464D01*
X0077756Y0038369D01*
X0077658Y0038277D01*
X0077558Y0038188D01*
X0077455Y0038102D01*
X0077350Y0038019D01*
X0077242Y0037939D01*
X0077132Y0037862D01*
X0077019Y0037789D01*
X0076905Y0037719D01*
X0076788Y0037653D01*
X0076670Y0037590D01*
X0076549Y0037530D01*
X0076427Y0037474D01*
X0076304Y0037422D01*
X0076179Y0037373D01*
X0076052Y0037329D01*
X0075924Y0037287D01*
X0075796Y0037250D01*
X0075666Y0037217D01*
X0075535Y0037187D01*
X0075403Y0037161D01*
X0075271Y0037140D01*
X0075138Y0037122D01*
X0075004Y0037108D01*
X0074870Y0037098D01*
X0074736Y0037092D01*
X0074602Y0037090D01*
X0074468Y0037092D01*
X0074334Y0037098D01*
X0074200Y0037108D01*
X0074066Y0037122D01*
X0073933Y0037140D01*
X0073801Y0037161D01*
X0073669Y0037187D01*
X0073538Y0037217D01*
X0073408Y0037250D01*
X0073280Y0037287D01*
X0073152Y0037329D01*
X0073025Y0037373D01*
X0072900Y0037422D01*
X0072777Y0037474D01*
X0072655Y0037530D01*
X0072534Y0037590D01*
X0072416Y0037653D01*
X0072299Y0037719D01*
X0072185Y0037789D01*
X0072072Y0037862D01*
X0071962Y0037939D01*
X0071854Y0038019D01*
X0071749Y0038102D01*
X0071646Y0038188D01*
X0071546Y0038277D01*
X0071448Y0038369D01*
X0071353Y0038464D01*
X0071261Y0038562D01*
X0071172Y0038662D01*
X0071086Y0038765D01*
X0071003Y0038870D01*
X0070923Y0038978D01*
X0070846Y0039088D01*
X0070773Y0039201D01*
X0070703Y0039315D01*
X0070637Y0039432D01*
X0070574Y0039550D01*
X0070514Y0039671D01*
X0070458Y0039793D01*
X0070406Y0039916D01*
X0070357Y0040041D01*
X0070313Y0040168D01*
X0070271Y0040296D01*
X0070234Y0040424D01*
X0070201Y0040554D01*
X0070171Y0040685D01*
X0070145Y0040817D01*
X0070124Y0040949D01*
X0070106Y0041082D01*
X0070092Y0041216D01*
X0070082Y0041350D01*
X0070076Y0041484D01*
X0070074Y0041618D01*
D11*
X0099759Y0047189D03*
X0099759Y0032189D03*
X0094798Y0102465D03*
X0094798Y0117465D03*
D12*
X0092771Y0021343D03*
X0107771Y0021343D03*
D13*
X0061728Y0107849D03*
X0061728Y0114049D03*
X0123932Y0119581D03*
X0123932Y0125781D03*
D14*
X0088617Y0138771D03*
X0088617Y0150371D03*
D15*
X0088420Y0158035D03*
X0072672Y0158035D03*
D16*
X0101063Y0158002D03*
X0101063Y0148902D03*
X0101063Y0139802D03*
D17*
X0125464Y0148902D03*
D18*
X0071728Y0104531D03*
X0071728Y0097839D03*
D19*
X0074877Y0087957D03*
X0068184Y0087957D03*
X0027909Y0070083D03*
X0021216Y0070083D03*
X0020901Y0081894D03*
X0027594Y0081894D03*
D20*
X0066373Y0127642D03*
X0074247Y0127642D03*
X0082121Y0127642D03*
X0089995Y0127642D03*
X0097869Y0127642D03*
X0116767Y0127366D03*
X0116767Y0119492D03*
X0116767Y0111618D03*
X0116767Y0103744D03*
X0116767Y0095870D03*
X0116767Y0087996D03*
X0116767Y0080122D03*
X0116767Y0072248D03*
X0116767Y0064374D03*
X0116767Y0056500D03*
X0116767Y0048626D03*
X0116767Y0040752D03*
X0116767Y0032878D03*
X0116767Y0025004D03*
X0116767Y0017130D03*
D21*
X0083932Y0020555D03*
X0083932Y0030555D03*
X0083932Y0040555D03*
X0083932Y0050555D03*
X0083932Y0060555D03*
X0083932Y0070555D03*
X0083932Y0080555D03*
X0083932Y0090555D03*
X0013932Y0090555D03*
X0013932Y0080555D03*
X0013932Y0070555D03*
X0013932Y0060555D03*
X0013932Y0050555D03*
X0013932Y0040555D03*
X0013932Y0030555D03*
X0013932Y0020555D03*
D22*
X0040695Y0072996D03*
X0040695Y0077996D03*
X0040695Y0082996D03*
X0040695Y0087996D03*
X0040695Y0092996D03*
X0040695Y0097996D03*
X0040695Y0102996D03*
X0059295Y0102996D03*
X0059295Y0097996D03*
X0059295Y0092996D03*
X0059295Y0087996D03*
X0059295Y0082996D03*
X0059295Y0077996D03*
X0059295Y0072996D03*
D23*
X0062515Y0055157D02*
X0062515Y0049417D01*
X0052672Y0049417D02*
X0052672Y0055157D01*
X0044798Y0055157D02*
X0044798Y0049417D01*
X0034956Y0049417D02*
X0034956Y0055157D01*
D24*
X0022869Y0041618D03*
X0074602Y0041618D03*
D25*
X0060074Y0154335D02*
X0060074Y0161735D01*
X0050074Y0161735D02*
X0050074Y0154335D01*
X0040074Y0154335D02*
X0040074Y0161735D01*
X0030074Y0161735D02*
X0030074Y0154335D01*
X0020074Y0154335D02*
X0020074Y0161735D01*
X0010074Y0161735D02*
X0010074Y0154335D01*
M02*
