G75*
%MOIN*%
%OFA0B0*%
%FSLAX25Y25*%
%IPPOS*%
%LPD*%
%AMOC8*
5,1,8,0,0,1.08239X$1,22.5*
%
%ADD10C,0.00000*%
%ADD11C,0.00800*%
%ADD12C,0.00700*%
%ADD13R,0.12500X0.01875*%
%ADD14R,0.01875X0.12500*%
%ADD15C,0.00500*%
%ADD16C,0.00400*%
%ADD17C,0.00300*%
%ADD18C,0.00600*%
%ADD19C,0.01000*%
%ADD20C,0.00200*%
%ADD21C,0.00100*%
D10*
X0002200Y0012366D02*
X0002200Y0173783D01*
X0136255Y0173980D01*
X0136255Y0012563D01*
X0002200Y0012366D01*
X0018341Y0041618D02*
X0018343Y0041752D01*
X0018349Y0041886D01*
X0018359Y0042020D01*
X0018373Y0042154D01*
X0018391Y0042287D01*
X0018412Y0042419D01*
X0018438Y0042551D01*
X0018468Y0042682D01*
X0018501Y0042812D01*
X0018538Y0042940D01*
X0018580Y0043068D01*
X0018624Y0043195D01*
X0018673Y0043320D01*
X0018725Y0043443D01*
X0018781Y0043565D01*
X0018841Y0043686D01*
X0018904Y0043804D01*
X0018970Y0043921D01*
X0019040Y0044035D01*
X0019113Y0044148D01*
X0019190Y0044258D01*
X0019270Y0044366D01*
X0019353Y0044471D01*
X0019439Y0044574D01*
X0019528Y0044674D01*
X0019620Y0044772D01*
X0019715Y0044867D01*
X0019813Y0044959D01*
X0019913Y0045048D01*
X0020016Y0045134D01*
X0020121Y0045217D01*
X0020229Y0045297D01*
X0020339Y0045374D01*
X0020452Y0045447D01*
X0020566Y0045517D01*
X0020683Y0045583D01*
X0020801Y0045646D01*
X0020922Y0045706D01*
X0021044Y0045762D01*
X0021167Y0045814D01*
X0021292Y0045863D01*
X0021419Y0045907D01*
X0021547Y0045949D01*
X0021675Y0045986D01*
X0021805Y0046019D01*
X0021936Y0046049D01*
X0022068Y0046075D01*
X0022200Y0046096D01*
X0022333Y0046114D01*
X0022467Y0046128D01*
X0022601Y0046138D01*
X0022735Y0046144D01*
X0022869Y0046146D01*
X0023003Y0046144D01*
X0023137Y0046138D01*
X0023271Y0046128D01*
X0023405Y0046114D01*
X0023538Y0046096D01*
X0023670Y0046075D01*
X0023802Y0046049D01*
X0023933Y0046019D01*
X0024063Y0045986D01*
X0024191Y0045949D01*
X0024319Y0045907D01*
X0024446Y0045863D01*
X0024571Y0045814D01*
X0024694Y0045762D01*
X0024816Y0045706D01*
X0024937Y0045646D01*
X0025055Y0045583D01*
X0025172Y0045517D01*
X0025286Y0045447D01*
X0025399Y0045374D01*
X0025509Y0045297D01*
X0025617Y0045217D01*
X0025722Y0045134D01*
X0025825Y0045048D01*
X0025925Y0044959D01*
X0026023Y0044867D01*
X0026118Y0044772D01*
X0026210Y0044674D01*
X0026299Y0044574D01*
X0026385Y0044471D01*
X0026468Y0044366D01*
X0026548Y0044258D01*
X0026625Y0044148D01*
X0026698Y0044035D01*
X0026768Y0043921D01*
X0026834Y0043804D01*
X0026897Y0043686D01*
X0026957Y0043565D01*
X0027013Y0043443D01*
X0027065Y0043320D01*
X0027114Y0043195D01*
X0027158Y0043068D01*
X0027200Y0042940D01*
X0027237Y0042812D01*
X0027270Y0042682D01*
X0027300Y0042551D01*
X0027326Y0042419D01*
X0027347Y0042287D01*
X0027365Y0042154D01*
X0027379Y0042020D01*
X0027389Y0041886D01*
X0027395Y0041752D01*
X0027397Y0041618D01*
X0027395Y0041484D01*
X0027389Y0041350D01*
X0027379Y0041216D01*
X0027365Y0041082D01*
X0027347Y0040949D01*
X0027326Y0040817D01*
X0027300Y0040685D01*
X0027270Y0040554D01*
X0027237Y0040424D01*
X0027200Y0040296D01*
X0027158Y0040168D01*
X0027114Y0040041D01*
X0027065Y0039916D01*
X0027013Y0039793D01*
X0026957Y0039671D01*
X0026897Y0039550D01*
X0026834Y0039432D01*
X0026768Y0039315D01*
X0026698Y0039201D01*
X0026625Y0039088D01*
X0026548Y0038978D01*
X0026468Y0038870D01*
X0026385Y0038765D01*
X0026299Y0038662D01*
X0026210Y0038562D01*
X0026118Y0038464D01*
X0026023Y0038369D01*
X0025925Y0038277D01*
X0025825Y0038188D01*
X0025722Y0038102D01*
X0025617Y0038019D01*
X0025509Y0037939D01*
X0025399Y0037862D01*
X0025286Y0037789D01*
X0025172Y0037719D01*
X0025055Y0037653D01*
X0024937Y0037590D01*
X0024816Y0037530D01*
X0024694Y0037474D01*
X0024571Y0037422D01*
X0024446Y0037373D01*
X0024319Y0037329D01*
X0024191Y0037287D01*
X0024063Y0037250D01*
X0023933Y0037217D01*
X0023802Y0037187D01*
X0023670Y0037161D01*
X0023538Y0037140D01*
X0023405Y0037122D01*
X0023271Y0037108D01*
X0023137Y0037098D01*
X0023003Y0037092D01*
X0022869Y0037090D01*
X0022735Y0037092D01*
X0022601Y0037098D01*
X0022467Y0037108D01*
X0022333Y0037122D01*
X0022200Y0037140D01*
X0022068Y0037161D01*
X0021936Y0037187D01*
X0021805Y0037217D01*
X0021675Y0037250D01*
X0021547Y0037287D01*
X0021419Y0037329D01*
X0021292Y0037373D01*
X0021167Y0037422D01*
X0021044Y0037474D01*
X0020922Y0037530D01*
X0020801Y0037590D01*
X0020683Y0037653D01*
X0020566Y0037719D01*
X0020452Y0037789D01*
X0020339Y0037862D01*
X0020229Y0037939D01*
X0020121Y0038019D01*
X0020016Y0038102D01*
X0019913Y0038188D01*
X0019813Y0038277D01*
X0019715Y0038369D01*
X0019620Y0038464D01*
X0019528Y0038562D01*
X0019439Y0038662D01*
X0019353Y0038765D01*
X0019270Y0038870D01*
X0019190Y0038978D01*
X0019113Y0039088D01*
X0019040Y0039201D01*
X0018970Y0039315D01*
X0018904Y0039432D01*
X0018841Y0039550D01*
X0018781Y0039671D01*
X0018725Y0039793D01*
X0018673Y0039916D01*
X0018624Y0040041D01*
X0018580Y0040168D01*
X0018538Y0040296D01*
X0018501Y0040424D01*
X0018468Y0040554D01*
X0018438Y0040685D01*
X0018412Y0040817D01*
X0018391Y0040949D01*
X0018373Y0041082D01*
X0018359Y0041216D01*
X0018349Y0041350D01*
X0018343Y0041484D01*
X0018341Y0041618D01*
X0048795Y0105096D02*
X0048794Y0105027D01*
X0048797Y0104959D01*
X0048804Y0104891D01*
X0048815Y0104823D01*
X0048830Y0104756D01*
X0048848Y0104690D01*
X0048870Y0104625D01*
X0048896Y0104561D01*
X0048926Y0104499D01*
X0048958Y0104439D01*
X0048995Y0104381D01*
X0049034Y0104325D01*
X0049077Y0104271D01*
X0049123Y0104220D01*
X0049171Y0104172D01*
X0049223Y0104126D01*
X0049276Y0104084D01*
X0049333Y0104044D01*
X0049391Y0104008D01*
X0049451Y0103975D01*
X0049513Y0103946D01*
X0049577Y0103920D01*
X0049642Y0103898D01*
X0049708Y0103880D01*
X0049775Y0103865D01*
X0049842Y0103855D01*
X0049911Y0103848D01*
X0049979Y0103845D01*
X0050048Y0103846D01*
X0050116Y0103851D01*
X0050184Y0103860D01*
X0050252Y0103873D01*
X0050318Y0103889D01*
X0050384Y0103910D01*
X0050448Y0103934D01*
X0050511Y0103961D01*
X0050572Y0103993D01*
X0050631Y0104027D01*
X0050688Y0104065D01*
X0050743Y0104106D01*
X0050795Y0104151D01*
X0050845Y0104198D01*
X0050892Y0104248D01*
X0050936Y0104300D01*
X0050977Y0104355D01*
X0051015Y0104412D01*
X0051050Y0104472D01*
X0051081Y0104533D01*
X0051108Y0104596D01*
X0051132Y0104660D01*
X0051152Y0104726D01*
X0051169Y0104792D01*
X0051181Y0104860D01*
X0051190Y0104928D01*
X0051195Y0104996D01*
X0070074Y0041618D02*
X0070076Y0041752D01*
X0070082Y0041886D01*
X0070092Y0042020D01*
X0070106Y0042154D01*
X0070124Y0042287D01*
X0070145Y0042419D01*
X0070171Y0042551D01*
X0070201Y0042682D01*
X0070234Y0042812D01*
X0070271Y0042940D01*
X0070313Y0043068D01*
X0070357Y0043195D01*
X0070406Y0043320D01*
X0070458Y0043443D01*
X0070514Y0043565D01*
X0070574Y0043686D01*
X0070637Y0043804D01*
X0070703Y0043921D01*
X0070773Y0044035D01*
X0070846Y0044148D01*
X0070923Y0044258D01*
X0071003Y0044366D01*
X0071086Y0044471D01*
X0071172Y0044574D01*
X0071261Y0044674D01*
X0071353Y0044772D01*
X0071448Y0044867D01*
X0071546Y0044959D01*
X0071646Y0045048D01*
X0071749Y0045134D01*
X0071854Y0045217D01*
X0071962Y0045297D01*
X0072072Y0045374D01*
X0072185Y0045447D01*
X0072299Y0045517D01*
X0072416Y0045583D01*
X0072534Y0045646D01*
X0072655Y0045706D01*
X0072777Y0045762D01*
X0072900Y0045814D01*
X0073025Y0045863D01*
X0073152Y0045907D01*
X0073280Y0045949D01*
X0073408Y0045986D01*
X0073538Y0046019D01*
X0073669Y0046049D01*
X0073801Y0046075D01*
X0073933Y0046096D01*
X0074066Y0046114D01*
X0074200Y0046128D01*
X0074334Y0046138D01*
X0074468Y0046144D01*
X0074602Y0046146D01*
X0074736Y0046144D01*
X0074870Y0046138D01*
X0075004Y0046128D01*
X0075138Y0046114D01*
X0075271Y0046096D01*
X0075403Y0046075D01*
X0075535Y0046049D01*
X0075666Y0046019D01*
X0075796Y0045986D01*
X0075924Y0045949D01*
X0076052Y0045907D01*
X0076179Y0045863D01*
X0076304Y0045814D01*
X0076427Y0045762D01*
X0076549Y0045706D01*
X0076670Y0045646D01*
X0076788Y0045583D01*
X0076905Y0045517D01*
X0077019Y0045447D01*
X0077132Y0045374D01*
X0077242Y0045297D01*
X0077350Y0045217D01*
X0077455Y0045134D01*
X0077558Y0045048D01*
X0077658Y0044959D01*
X0077756Y0044867D01*
X0077851Y0044772D01*
X0077943Y0044674D01*
X0078032Y0044574D01*
X0078118Y0044471D01*
X0078201Y0044366D01*
X0078281Y0044258D01*
X0078358Y0044148D01*
X0078431Y0044035D01*
X0078501Y0043921D01*
X0078567Y0043804D01*
X0078630Y0043686D01*
X0078690Y0043565D01*
X0078746Y0043443D01*
X0078798Y0043320D01*
X0078847Y0043195D01*
X0078891Y0043068D01*
X0078933Y0042940D01*
X0078970Y0042812D01*
X0079003Y0042682D01*
X0079033Y0042551D01*
X0079059Y0042419D01*
X0079080Y0042287D01*
X0079098Y0042154D01*
X0079112Y0042020D01*
X0079122Y0041886D01*
X0079128Y0041752D01*
X0079130Y0041618D01*
X0079128Y0041484D01*
X0079122Y0041350D01*
X0079112Y0041216D01*
X0079098Y0041082D01*
X0079080Y0040949D01*
X0079059Y0040817D01*
X0079033Y0040685D01*
X0079003Y0040554D01*
X0078970Y0040424D01*
X0078933Y0040296D01*
X0078891Y0040168D01*
X0078847Y0040041D01*
X0078798Y0039916D01*
X0078746Y0039793D01*
X0078690Y0039671D01*
X0078630Y0039550D01*
X0078567Y0039432D01*
X0078501Y0039315D01*
X0078431Y0039201D01*
X0078358Y0039088D01*
X0078281Y0038978D01*
X0078201Y0038870D01*
X0078118Y0038765D01*
X0078032Y0038662D01*
X0077943Y0038562D01*
X0077851Y0038464D01*
X0077756Y0038369D01*
X0077658Y0038277D01*
X0077558Y0038188D01*
X0077455Y0038102D01*
X0077350Y0038019D01*
X0077242Y0037939D01*
X0077132Y0037862D01*
X0077019Y0037789D01*
X0076905Y0037719D01*
X0076788Y0037653D01*
X0076670Y0037590D01*
X0076549Y0037530D01*
X0076427Y0037474D01*
X0076304Y0037422D01*
X0076179Y0037373D01*
X0076052Y0037329D01*
X0075924Y0037287D01*
X0075796Y0037250D01*
X0075666Y0037217D01*
X0075535Y0037187D01*
X0075403Y0037161D01*
X0075271Y0037140D01*
X0075138Y0037122D01*
X0075004Y0037108D01*
X0074870Y0037098D01*
X0074736Y0037092D01*
X0074602Y0037090D01*
X0074468Y0037092D01*
X0074334Y0037098D01*
X0074200Y0037108D01*
X0074066Y0037122D01*
X0073933Y0037140D01*
X0073801Y0037161D01*
X0073669Y0037187D01*
X0073538Y0037217D01*
X0073408Y0037250D01*
X0073280Y0037287D01*
X0073152Y0037329D01*
X0073025Y0037373D01*
X0072900Y0037422D01*
X0072777Y0037474D01*
X0072655Y0037530D01*
X0072534Y0037590D01*
X0072416Y0037653D01*
X0072299Y0037719D01*
X0072185Y0037789D01*
X0072072Y0037862D01*
X0071962Y0037939D01*
X0071854Y0038019D01*
X0071749Y0038102D01*
X0071646Y0038188D01*
X0071546Y0038277D01*
X0071448Y0038369D01*
X0071353Y0038464D01*
X0071261Y0038562D01*
X0071172Y0038662D01*
X0071086Y0038765D01*
X0071003Y0038870D01*
X0070923Y0038978D01*
X0070846Y0039088D01*
X0070773Y0039201D01*
X0070703Y0039315D01*
X0070637Y0039432D01*
X0070574Y0039550D01*
X0070514Y0039671D01*
X0070458Y0039793D01*
X0070406Y0039916D01*
X0070357Y0040041D01*
X0070313Y0040168D01*
X0070271Y0040296D01*
X0070234Y0040424D01*
X0070201Y0040554D01*
X0070171Y0040685D01*
X0070145Y0040817D01*
X0070124Y0040949D01*
X0070106Y0041082D01*
X0070092Y0041216D01*
X0070082Y0041350D01*
X0070076Y0041484D01*
X0070074Y0041618D01*
D11*
X0093765Y0046746D02*
X0093765Y0032632D01*
X0093214Y0027337D02*
X0107328Y0027337D01*
X0105753Y0032632D02*
X0105753Y0046746D01*
X0097353Y0039054D02*
X0094853Y0039054D01*
X0100906Y0018936D02*
X0100906Y0016436D01*
X0107328Y0015348D02*
X0093214Y0015348D01*
X0088804Y0102907D02*
X0088804Y0117022D01*
X0097205Y0110600D02*
X0099705Y0110600D01*
X0100793Y0117022D02*
X0100793Y0102907D01*
X0106763Y0136002D02*
X0119763Y0136002D01*
X0119763Y0161802D01*
X0106763Y0161802D01*
X0106763Y0136002D01*
X0089602Y0152327D02*
X0089602Y0152917D01*
X0089602Y0152327D02*
X0071491Y0152327D01*
X0071491Y0152917D01*
X0071491Y0163154D02*
X0071491Y0163744D01*
X0089602Y0163744D01*
X0089602Y0163154D01*
X0082909Y0161972D02*
X0082909Y0154098D01*
D12*
X0102736Y0114589D02*
X0102019Y0113872D01*
X0102019Y0112437D01*
X0102736Y0111720D01*
X0102736Y0109985D02*
X0102019Y0109268D01*
X0102019Y0107833D01*
X0102736Y0107116D01*
X0105605Y0107116D01*
X0106322Y0107833D01*
X0106322Y0109268D01*
X0105605Y0109985D01*
X0105605Y0111720D02*
X0106322Y0112437D01*
X0106322Y0113872D01*
X0105605Y0114589D01*
X0104888Y0114589D01*
X0104170Y0113872D01*
X0103453Y0114589D01*
X0102736Y0114589D01*
X0104170Y0113872D02*
X0104170Y0113154D01*
X0098455Y0111850D02*
X0098455Y0109350D01*
X0098671Y0042354D02*
X0098671Y0038051D01*
X0100106Y0038051D02*
X0097236Y0038051D01*
X0096103Y0037804D02*
X0096103Y0040304D01*
X0098671Y0042354D02*
X0100106Y0040920D01*
X0101840Y0041637D02*
X0102558Y0042354D01*
X0103992Y0042354D01*
X0104709Y0041637D01*
X0104709Y0038768D01*
X0103992Y0038051D01*
X0102558Y0038051D01*
X0101840Y0038768D01*
X0101510Y0025770D02*
X0100793Y0025770D01*
X0097924Y0022901D01*
X0097924Y0025770D01*
X0098641Y0021166D02*
X0097924Y0020449D01*
X0097924Y0019014D01*
X0098641Y0018297D01*
X0101510Y0018297D01*
X0102228Y0019014D01*
X0102228Y0020449D01*
X0101510Y0021166D01*
X0101510Y0022901D02*
X0102228Y0023618D01*
X0102228Y0025053D01*
X0101510Y0025770D01*
X0102156Y0017686D02*
X0099656Y0017686D01*
D13*
X0099759Y0036251D03*
X0094798Y0113402D03*
D14*
X0103708Y0021343D03*
D15*
X0062728Y0110049D02*
X0060728Y0110049D01*
X0060728Y0111849D01*
X0062728Y0111849D01*
X0062728Y0110049D01*
X0086117Y0141671D02*
X0091117Y0141671D01*
X0091117Y0147471D01*
X0086117Y0147471D01*
X0086117Y0141671D01*
X0122932Y0123581D02*
X0122932Y0121781D01*
X0124932Y0121781D01*
X0124932Y0123581D01*
X0122932Y0123581D01*
D16*
X0122800Y0129149D02*
X0122199Y0129749D01*
X0122199Y0130950D01*
X0122800Y0131551D01*
X0122800Y0132832D02*
X0122199Y0132832D01*
X0122800Y0132832D02*
X0125202Y0135234D01*
X0125802Y0135234D01*
X0125802Y0132832D01*
X0125202Y0131551D02*
X0125802Y0130950D01*
X0125802Y0129749D01*
X0125202Y0129149D01*
X0122800Y0129149D01*
X0080921Y0103744D02*
X0080921Y0102209D01*
X0080154Y0101442D01*
X0080154Y0099907D02*
X0078619Y0099907D01*
X0077852Y0099140D01*
X0077852Y0096838D01*
X0077852Y0098372D02*
X0076317Y0099907D01*
X0076317Y0101442D02*
X0079387Y0104511D01*
X0080154Y0104511D01*
X0080921Y0103744D01*
X0080154Y0099907D02*
X0080921Y0099140D01*
X0080921Y0096838D01*
X0076317Y0096838D01*
X0076317Y0101442D02*
X0076317Y0104511D01*
X0070251Y0109434D02*
X0069651Y0108834D01*
X0067249Y0108834D01*
X0066648Y0109434D01*
X0066648Y0110635D01*
X0067249Y0111236D01*
X0067249Y0112517D02*
X0066648Y0113117D01*
X0066648Y0114318D01*
X0067249Y0114919D01*
X0068450Y0114919D01*
X0069050Y0114318D01*
X0069050Y0113718D01*
X0068450Y0112517D01*
X0070251Y0112517D01*
X0070251Y0114919D01*
X0069651Y0111236D02*
X0070251Y0110635D01*
X0070251Y0109434D01*
X0073259Y0084394D02*
X0072491Y0083627D01*
X0072491Y0082860D01*
X0073259Y0082093D01*
X0072491Y0081325D01*
X0072491Y0080558D01*
X0073259Y0079791D01*
X0074793Y0079791D01*
X0075561Y0080558D01*
X0077095Y0079791D02*
X0078630Y0081325D01*
X0077863Y0081325D02*
X0080165Y0081325D01*
X0080165Y0079791D02*
X0080165Y0084394D01*
X0077863Y0084394D01*
X0077095Y0083627D01*
X0077095Y0082093D01*
X0077863Y0081325D01*
X0075561Y0083627D02*
X0074793Y0084394D01*
X0073259Y0084394D01*
X0073259Y0082093D02*
X0074026Y0082093D01*
X0029106Y0086405D02*
X0029106Y0091009D01*
X0026804Y0091009D01*
X0026037Y0090241D01*
X0026037Y0088707D01*
X0026804Y0087939D01*
X0029106Y0087939D01*
X0027572Y0087939D02*
X0026037Y0086405D01*
X0024502Y0088707D02*
X0021433Y0088707D01*
X0022200Y0086405D02*
X0022200Y0091009D01*
X0024502Y0088707D01*
X0024655Y0065694D02*
X0021586Y0065694D01*
X0022353Y0064159D02*
X0021586Y0063392D01*
X0021586Y0061857D01*
X0022353Y0061090D01*
X0023888Y0061090D01*
X0024655Y0061857D01*
X0024655Y0063392D02*
X0023120Y0064159D01*
X0022353Y0064159D01*
X0024655Y0063392D02*
X0024655Y0065694D01*
X0026190Y0064926D02*
X0026190Y0063392D01*
X0026957Y0062624D01*
X0029259Y0062624D01*
X0029259Y0061090D02*
X0029259Y0065694D01*
X0026957Y0065694D01*
X0026190Y0064926D01*
X0027724Y0062624D02*
X0026190Y0061090D01*
D17*
X0025564Y0053636D02*
X0025564Y0050733D01*
X0024597Y0050733D02*
X0026532Y0050733D01*
X0027543Y0050733D02*
X0029478Y0053636D01*
X0027543Y0053636D02*
X0029478Y0050733D01*
X0026532Y0052668D02*
X0025564Y0053636D01*
X0059309Y0105630D02*
X0062445Y0108766D01*
X0062445Y0107198D02*
X0059309Y0107198D01*
X0059309Y0108766D02*
X0062445Y0105630D01*
X0060877Y0105630D02*
X0060877Y0108766D01*
X0056977Y0108116D02*
X0056977Y0107332D01*
X0056193Y0106548D01*
X0054625Y0106548D01*
X0053841Y0107332D01*
X0052373Y0107332D02*
X0051589Y0106548D01*
X0050021Y0106548D01*
X0049237Y0107332D01*
X0049237Y0108116D01*
X0050021Y0108900D01*
X0051589Y0108900D01*
X0052373Y0109684D01*
X0052373Y0110468D01*
X0051589Y0111252D01*
X0050021Y0111252D01*
X0049237Y0110468D01*
X0047769Y0110468D02*
X0047769Y0106548D01*
X0050805Y0105764D02*
X0050805Y0112036D01*
X0053841Y0111252D02*
X0056977Y0108116D01*
X0056977Y0111252D02*
X0053841Y0111252D01*
X0047769Y0110468D02*
X0046985Y0111252D01*
X0045417Y0111252D01*
X0044633Y0110468D01*
X0044633Y0106548D01*
X0079370Y0141040D02*
X0078886Y0141524D01*
X0078886Y0142492D01*
X0079370Y0142975D01*
X0079370Y0143987D02*
X0079854Y0143987D01*
X0080337Y0144471D01*
X0080337Y0145438D01*
X0079854Y0145922D01*
X0079370Y0145922D01*
X0078886Y0145438D01*
X0078886Y0144471D01*
X0079370Y0143987D01*
X0080337Y0144471D02*
X0080821Y0143987D01*
X0081305Y0143987D01*
X0081789Y0144471D01*
X0081789Y0145438D01*
X0081305Y0145922D01*
X0080821Y0145922D01*
X0080337Y0145438D01*
X0081305Y0142975D02*
X0081789Y0142492D01*
X0081789Y0141524D01*
X0081305Y0141040D01*
X0079370Y0141040D01*
X0078432Y0163997D02*
X0080367Y0163997D01*
X0078432Y0165932D01*
X0078432Y0166416D01*
X0078915Y0166900D01*
X0079883Y0166900D01*
X0080367Y0166416D01*
X0081378Y0166416D02*
X0081862Y0166900D01*
X0083313Y0166900D01*
X0083313Y0163997D01*
X0081862Y0163997D01*
X0081378Y0164481D01*
X0081378Y0166416D01*
X0115999Y0159191D02*
X0118467Y0159191D01*
X0117233Y0159191D02*
X0117233Y0162895D01*
X0118467Y0161660D01*
X0119682Y0162277D02*
X0120299Y0162895D01*
X0121533Y0162895D01*
X0122151Y0162277D01*
X0122151Y0159809D01*
X0121533Y0159191D01*
X0120299Y0159191D01*
X0119682Y0159809D01*
X0123372Y0159191D02*
X0124606Y0159191D01*
X0123989Y0159191D02*
X0123989Y0162895D01*
X0124606Y0162895D02*
X0123372Y0162895D01*
D18*
X0061795Y0103996D02*
X0061795Y0101996D01*
X0057695Y0101996D01*
X0057695Y0103996D01*
X0061795Y0103996D01*
X0057695Y0104996D02*
X0057695Y0070996D01*
X0042295Y0070996D01*
X0042295Y0104996D01*
X0051195Y0104996D01*
X0057695Y0104996D01*
X0057695Y0098996D02*
X0061795Y0098996D01*
X0061795Y0096996D01*
X0057695Y0096996D01*
X0057695Y0098996D01*
X0057695Y0093996D02*
X0061795Y0093996D01*
X0061795Y0091996D01*
X0057695Y0091996D01*
X0057695Y0093996D01*
X0057695Y0088996D02*
X0061795Y0088996D01*
X0061795Y0086996D01*
X0057695Y0086996D01*
X0057695Y0088996D01*
X0057695Y0083996D02*
X0061795Y0083996D01*
X0061795Y0081996D01*
X0057695Y0081996D01*
X0057695Y0083996D01*
X0057695Y0078996D02*
X0061795Y0078996D01*
X0061795Y0076996D01*
X0057695Y0076996D01*
X0057695Y0078996D01*
X0057695Y0073996D02*
X0061795Y0073996D01*
X0061795Y0071996D01*
X0057695Y0071996D01*
X0057695Y0073996D01*
X0042295Y0073996D02*
X0042295Y0071996D01*
X0038195Y0071996D01*
X0038195Y0073996D01*
X0042295Y0073996D01*
X0042295Y0076996D02*
X0038195Y0076996D01*
X0038195Y0078996D01*
X0042295Y0078996D01*
X0042295Y0076996D01*
X0042295Y0081996D02*
X0038195Y0081996D01*
X0038195Y0083996D01*
X0042295Y0083996D01*
X0042295Y0081996D01*
X0042295Y0086996D02*
X0038195Y0086996D01*
X0038195Y0088996D01*
X0042295Y0088996D01*
X0042295Y0086996D01*
X0042295Y0091996D02*
X0038195Y0091996D01*
X0038195Y0093996D01*
X0042295Y0093996D01*
X0042295Y0091996D01*
X0042295Y0096996D02*
X0038195Y0096996D01*
X0038195Y0098996D01*
X0042295Y0098996D01*
X0042295Y0096996D01*
X0042295Y0101996D02*
X0038195Y0101996D01*
X0038195Y0103996D01*
X0042295Y0103996D01*
X0042295Y0101996D01*
X0043735Y0030319D02*
X0038735Y0007287D01*
X0033735Y0007287D01*
X0028735Y0030319D01*
X0053735Y0030319D02*
X0058735Y0007287D01*
X0063735Y0007287D01*
X0068735Y0030319D01*
D19*
X0077869Y0057799D02*
X0077869Y0001500D01*
X0019602Y0001500D01*
X0019602Y0057799D01*
X0077869Y0057799D01*
D20*
X0063834Y0045161D02*
X0061373Y0045161D01*
X0058420Y0045161D01*
X0058420Y0045162D02*
X0058333Y0045160D01*
X0058246Y0045154D01*
X0058159Y0045145D01*
X0058073Y0045131D01*
X0057988Y0045114D01*
X0057903Y0045093D01*
X0057820Y0045068D01*
X0057737Y0045040D01*
X0057656Y0045008D01*
X0057577Y0044972D01*
X0057499Y0044933D01*
X0057423Y0044891D01*
X0057349Y0044845D01*
X0057277Y0044796D01*
X0057207Y0044744D01*
X0057140Y0044689D01*
X0057075Y0044631D01*
X0057012Y0044570D01*
X0056953Y0044506D01*
X0056896Y0044440D01*
X0056843Y0044371D01*
X0056792Y0044300D01*
X0056745Y0044227D01*
X0056700Y0044152D01*
X0056660Y0044075D01*
X0056622Y0043997D01*
X0056589Y0043916D01*
X0056558Y0043835D01*
X0056532Y0043752D01*
X0056509Y0043667D01*
X0056490Y0043582D01*
X0056475Y0043497D01*
X0056463Y0043410D01*
X0056455Y0043324D01*
X0056451Y0043237D01*
X0056451Y0043149D01*
X0056455Y0043062D01*
X0056463Y0042976D01*
X0056475Y0042889D01*
X0056490Y0042804D01*
X0056509Y0042719D01*
X0056532Y0042634D01*
X0056558Y0042551D01*
X0056589Y0042470D01*
X0056622Y0042389D01*
X0056660Y0042311D01*
X0056700Y0042234D01*
X0056745Y0042159D01*
X0056792Y0042086D01*
X0056843Y0042015D01*
X0056896Y0041946D01*
X0056953Y0041880D01*
X0057012Y0041816D01*
X0057075Y0041755D01*
X0057140Y0041697D01*
X0057207Y0041642D01*
X0057277Y0041590D01*
X0057349Y0041541D01*
X0057423Y0041495D01*
X0057499Y0041453D01*
X0057577Y0041414D01*
X0057656Y0041378D01*
X0057737Y0041346D01*
X0057820Y0041318D01*
X0057903Y0041293D01*
X0057988Y0041272D01*
X0058073Y0041255D01*
X0058159Y0041241D01*
X0058246Y0041232D01*
X0058333Y0041226D01*
X0058420Y0041224D01*
X0058420Y0041225D02*
X0058333Y0041223D01*
X0058246Y0041217D01*
X0058159Y0041208D01*
X0058073Y0041194D01*
X0057988Y0041177D01*
X0057903Y0041156D01*
X0057820Y0041131D01*
X0057737Y0041103D01*
X0057656Y0041071D01*
X0057577Y0041035D01*
X0057499Y0040996D01*
X0057423Y0040954D01*
X0057349Y0040908D01*
X0057277Y0040859D01*
X0057207Y0040807D01*
X0057140Y0040752D01*
X0057075Y0040694D01*
X0057012Y0040633D01*
X0056953Y0040569D01*
X0056896Y0040503D01*
X0056843Y0040434D01*
X0056792Y0040363D01*
X0056745Y0040290D01*
X0056700Y0040215D01*
X0056660Y0040138D01*
X0056622Y0040060D01*
X0056589Y0039979D01*
X0056558Y0039898D01*
X0056532Y0039815D01*
X0056509Y0039730D01*
X0056490Y0039645D01*
X0056475Y0039560D01*
X0056463Y0039473D01*
X0056455Y0039387D01*
X0056451Y0039300D01*
X0056451Y0039212D01*
X0056455Y0039125D01*
X0056463Y0039039D01*
X0056475Y0038952D01*
X0056490Y0038867D01*
X0056509Y0038782D01*
X0056532Y0038697D01*
X0056558Y0038614D01*
X0056589Y0038533D01*
X0056622Y0038452D01*
X0056660Y0038374D01*
X0056700Y0038297D01*
X0056745Y0038222D01*
X0056792Y0038149D01*
X0056843Y0038078D01*
X0056896Y0038009D01*
X0056953Y0037943D01*
X0057012Y0037879D01*
X0057075Y0037818D01*
X0057140Y0037760D01*
X0057207Y0037705D01*
X0057277Y0037653D01*
X0057349Y0037604D01*
X0057423Y0037558D01*
X0057499Y0037516D01*
X0057577Y0037477D01*
X0057656Y0037441D01*
X0057737Y0037409D01*
X0057820Y0037381D01*
X0057903Y0037356D01*
X0057988Y0037335D01*
X0058073Y0037318D01*
X0058159Y0037304D01*
X0058246Y0037295D01*
X0058333Y0037289D01*
X0058420Y0037287D01*
X0061373Y0037287D01*
X0058420Y0039256D01*
X0061373Y0041224D01*
X0058420Y0043193D01*
X0061373Y0045161D01*
X0061373Y0041224D01*
X0061373Y0037287D01*
X0063834Y0037287D01*
X0063834Y0045161D01*
X0055468Y0045161D02*
X0055468Y0037287D01*
X0048578Y0037287D01*
X0048578Y0039256D01*
X0053007Y0039256D01*
X0053007Y0040240D01*
X0048578Y0040240D01*
X0048578Y0042209D01*
X0053007Y0042209D01*
X0053007Y0043193D01*
X0048578Y0043193D01*
X0048578Y0045161D01*
X0055468Y0045161D01*
X0047594Y0045161D02*
X0047594Y0037287D01*
X0045133Y0037287D01*
X0045133Y0040240D01*
X0043165Y0037287D01*
X0040212Y0037287D01*
X0042180Y0040240D01*
X0043657Y0041717D02*
X0045133Y0041717D01*
X0045133Y0043193D01*
X0043657Y0043193D01*
X0043604Y0043191D01*
X0043552Y0043185D01*
X0043500Y0043176D01*
X0043449Y0043163D01*
X0043399Y0043146D01*
X0043350Y0043126D01*
X0043303Y0043103D01*
X0043258Y0043076D01*
X0043215Y0043046D01*
X0043174Y0043013D01*
X0043135Y0042977D01*
X0043099Y0042938D01*
X0043066Y0042897D01*
X0043036Y0042854D01*
X0043009Y0042809D01*
X0042986Y0042762D01*
X0042966Y0042713D01*
X0042949Y0042663D01*
X0042936Y0042612D01*
X0042927Y0042560D01*
X0042921Y0042508D01*
X0042919Y0042455D01*
X0042921Y0042402D01*
X0042927Y0042350D01*
X0042936Y0042298D01*
X0042949Y0042247D01*
X0042966Y0042197D01*
X0042986Y0042148D01*
X0043009Y0042101D01*
X0043036Y0042056D01*
X0043066Y0042013D01*
X0043099Y0041972D01*
X0043135Y0041933D01*
X0043174Y0041897D01*
X0043215Y0041864D01*
X0043258Y0041834D01*
X0043303Y0041807D01*
X0043350Y0041784D01*
X0043399Y0041764D01*
X0043449Y0041747D01*
X0043500Y0041734D01*
X0043552Y0041725D01*
X0043604Y0041719D01*
X0043657Y0041717D01*
X0042180Y0040240D02*
X0042082Y0040242D01*
X0041984Y0040248D01*
X0041887Y0040257D01*
X0041790Y0040271D01*
X0041694Y0040288D01*
X0041598Y0040310D01*
X0041504Y0040335D01*
X0041410Y0040363D01*
X0041318Y0040396D01*
X0041227Y0040432D01*
X0041137Y0040472D01*
X0041050Y0040515D01*
X0040964Y0040562D01*
X0040880Y0040612D01*
X0040798Y0040665D01*
X0040718Y0040722D01*
X0040640Y0040781D01*
X0040565Y0040844D01*
X0040492Y0040910D01*
X0040423Y0040978D01*
X0040355Y0041049D01*
X0040291Y0041123D01*
X0040230Y0041200D01*
X0040172Y0041278D01*
X0040117Y0041359D01*
X0040065Y0041442D01*
X0040017Y0041527D01*
X0039972Y0041614D01*
X0039930Y0041703D01*
X0039893Y0041793D01*
X0039858Y0041885D01*
X0039828Y0041978D01*
X0039801Y0042072D01*
X0039778Y0042167D01*
X0039758Y0042263D01*
X0039743Y0042360D01*
X0039731Y0042457D01*
X0039723Y0042554D01*
X0039719Y0042652D01*
X0039719Y0042750D01*
X0039723Y0042848D01*
X0039731Y0042945D01*
X0039743Y0043042D01*
X0039758Y0043139D01*
X0039778Y0043235D01*
X0039801Y0043330D01*
X0039828Y0043424D01*
X0039858Y0043517D01*
X0039893Y0043609D01*
X0039930Y0043699D01*
X0039972Y0043788D01*
X0040017Y0043875D01*
X0040065Y0043960D01*
X0040117Y0044043D01*
X0040172Y0044124D01*
X0040230Y0044202D01*
X0040291Y0044279D01*
X0040355Y0044353D01*
X0040423Y0044424D01*
X0040492Y0044492D01*
X0040565Y0044558D01*
X0040640Y0044621D01*
X0040718Y0044680D01*
X0040798Y0044737D01*
X0040880Y0044790D01*
X0040964Y0044840D01*
X0041050Y0044887D01*
X0041137Y0044930D01*
X0041227Y0044970D01*
X0041318Y0045006D01*
X0041410Y0045039D01*
X0041504Y0045067D01*
X0041598Y0045092D01*
X0041694Y0045114D01*
X0041790Y0045131D01*
X0041887Y0045145D01*
X0041984Y0045154D01*
X0042082Y0045160D01*
X0042180Y0045162D01*
X0042180Y0045161D02*
X0047594Y0045161D01*
X0035290Y0037287D02*
X0035075Y0037290D01*
X0034861Y0037299D01*
X0034646Y0037312D01*
X0034432Y0037330D01*
X0034219Y0037353D01*
X0034006Y0037381D01*
X0033794Y0037414D01*
X0033582Y0037452D01*
X0033372Y0037495D01*
X0033163Y0037542D01*
X0032954Y0037594D01*
X0032747Y0037651D01*
X0032542Y0037713D01*
X0032337Y0037779D01*
X0032338Y0037780D02*
X0032338Y0041224D01*
X0034306Y0041224D01*
X0034306Y0039255D02*
X0034393Y0039257D01*
X0034480Y0039263D01*
X0034567Y0039272D01*
X0034653Y0039286D01*
X0034738Y0039303D01*
X0034823Y0039324D01*
X0034906Y0039349D01*
X0034989Y0039377D01*
X0035070Y0039409D01*
X0035149Y0039445D01*
X0035227Y0039484D01*
X0035303Y0039526D01*
X0035377Y0039572D01*
X0035449Y0039621D01*
X0035519Y0039673D01*
X0035586Y0039728D01*
X0035651Y0039786D01*
X0035714Y0039847D01*
X0035773Y0039911D01*
X0035830Y0039977D01*
X0035883Y0040046D01*
X0035934Y0040117D01*
X0035981Y0040190D01*
X0036026Y0040265D01*
X0036066Y0040342D01*
X0036104Y0040420D01*
X0036137Y0040501D01*
X0036168Y0040582D01*
X0036194Y0040665D01*
X0036217Y0040750D01*
X0036236Y0040835D01*
X0036251Y0040920D01*
X0036263Y0041007D01*
X0036271Y0041093D01*
X0036275Y0041180D01*
X0036275Y0041268D01*
X0036271Y0041355D01*
X0036263Y0041441D01*
X0036251Y0041528D01*
X0036236Y0041613D01*
X0036217Y0041698D01*
X0036194Y0041783D01*
X0036168Y0041866D01*
X0036137Y0041947D01*
X0036104Y0042028D01*
X0036066Y0042106D01*
X0036026Y0042183D01*
X0035981Y0042258D01*
X0035934Y0042331D01*
X0035883Y0042402D01*
X0035830Y0042471D01*
X0035773Y0042537D01*
X0035714Y0042601D01*
X0035651Y0042662D01*
X0035586Y0042720D01*
X0035519Y0042775D01*
X0035449Y0042827D01*
X0035377Y0042876D01*
X0035303Y0042922D01*
X0035227Y0042964D01*
X0035149Y0043003D01*
X0035070Y0043039D01*
X0034989Y0043071D01*
X0034906Y0043099D01*
X0034823Y0043124D01*
X0034738Y0043145D01*
X0034653Y0043162D01*
X0034567Y0043176D01*
X0034480Y0043185D01*
X0034393Y0043191D01*
X0034306Y0043193D01*
X0032357Y0043193D02*
X0032357Y0044945D01*
X0034306Y0041224D02*
X0034306Y0039256D01*
X0035291Y0037287D02*
X0035415Y0037289D01*
X0035538Y0037295D01*
X0035662Y0037304D01*
X0035784Y0037318D01*
X0035907Y0037335D01*
X0036029Y0037357D01*
X0036150Y0037382D01*
X0036270Y0037411D01*
X0036389Y0037443D01*
X0036508Y0037480D01*
X0036625Y0037520D01*
X0036740Y0037563D01*
X0036855Y0037611D01*
X0036967Y0037662D01*
X0037078Y0037716D01*
X0037188Y0037774D01*
X0037295Y0037835D01*
X0037401Y0037900D01*
X0037504Y0037968D01*
X0037605Y0038039D01*
X0037704Y0038113D01*
X0037801Y0038190D01*
X0037895Y0038271D01*
X0037986Y0038354D01*
X0038075Y0038440D01*
X0038161Y0038529D01*
X0038244Y0038620D01*
X0038325Y0038714D01*
X0038402Y0038811D01*
X0038476Y0038910D01*
X0038547Y0039011D01*
X0038615Y0039114D01*
X0038680Y0039220D01*
X0038741Y0039327D01*
X0038799Y0039437D01*
X0038853Y0039548D01*
X0038904Y0039660D01*
X0038952Y0039775D01*
X0038995Y0039890D01*
X0039035Y0040007D01*
X0039072Y0040126D01*
X0039104Y0040245D01*
X0039133Y0040365D01*
X0039158Y0040486D01*
X0039180Y0040608D01*
X0039197Y0040731D01*
X0039211Y0040853D01*
X0039220Y0040977D01*
X0039226Y0041100D01*
X0039228Y0041224D01*
X0039226Y0041348D01*
X0039220Y0041471D01*
X0039211Y0041595D01*
X0039197Y0041717D01*
X0039180Y0041840D01*
X0039158Y0041962D01*
X0039133Y0042083D01*
X0039104Y0042203D01*
X0039072Y0042322D01*
X0039035Y0042441D01*
X0038995Y0042558D01*
X0038952Y0042673D01*
X0038904Y0042788D01*
X0038853Y0042900D01*
X0038799Y0043011D01*
X0038741Y0043121D01*
X0038680Y0043228D01*
X0038615Y0043334D01*
X0038547Y0043437D01*
X0038476Y0043538D01*
X0038402Y0043637D01*
X0038325Y0043734D01*
X0038244Y0043828D01*
X0038161Y0043919D01*
X0038075Y0044008D01*
X0037986Y0044094D01*
X0037895Y0044177D01*
X0037801Y0044258D01*
X0037704Y0044335D01*
X0037605Y0044409D01*
X0037504Y0044480D01*
X0037401Y0044548D01*
X0037295Y0044613D01*
X0037188Y0044674D01*
X0037078Y0044732D01*
X0036967Y0044786D01*
X0036855Y0044837D01*
X0036740Y0044885D01*
X0036625Y0044928D01*
X0036508Y0044968D01*
X0036389Y0045005D01*
X0036270Y0045037D01*
X0036150Y0045066D01*
X0036029Y0045091D01*
X0035907Y0045113D01*
X0035784Y0045130D01*
X0035662Y0045144D01*
X0035538Y0045153D01*
X0035415Y0045159D01*
X0035291Y0045161D01*
X0034306Y0043193D02*
X0034128Y0043214D01*
X0033949Y0043232D01*
X0033770Y0043244D01*
X0033591Y0043253D01*
X0033412Y0043257D01*
X0033232Y0043257D01*
X0033053Y0043253D01*
X0032874Y0043244D01*
X0032695Y0043232D01*
X0032516Y0043214D01*
X0032338Y0043193D01*
X0032298Y0044945D02*
X0032627Y0045000D01*
X0032958Y0045047D01*
X0033289Y0045087D01*
X0033622Y0045119D01*
X0033955Y0045143D01*
X0034288Y0045159D01*
X0034622Y0045168D01*
X0034956Y0045168D01*
X0035290Y0045161D01*
D21*
X0034461Y0035138D02*
X0034711Y0034888D01*
X0034711Y0034637D01*
X0034461Y0034387D01*
X0033961Y0034387D01*
X0033711Y0034137D01*
X0033711Y0033887D01*
X0033961Y0033637D01*
X0034461Y0033637D01*
X0034711Y0033887D01*
X0034461Y0035138D02*
X0033961Y0035138D01*
X0033711Y0034888D01*
X0036657Y0034888D02*
X0036907Y0035138D01*
X0037408Y0035138D01*
X0037658Y0034888D01*
X0037658Y0033887D01*
X0037408Y0033637D01*
X0036907Y0033637D01*
X0036657Y0033887D01*
X0039613Y0033637D02*
X0040113Y0033637D01*
X0039863Y0033637D02*
X0039863Y0035138D01*
X0040113Y0035138D02*
X0039613Y0035138D01*
X0042059Y0035138D02*
X0042059Y0033637D01*
X0043060Y0035138D01*
X0043060Y0033637D01*
X0045006Y0033887D02*
X0045006Y0034888D01*
X0045256Y0035138D01*
X0045756Y0035138D01*
X0046006Y0034888D01*
X0046006Y0033887D01*
X0045756Y0033637D01*
X0045256Y0033637D01*
X0045006Y0033887D01*
X0047952Y0033637D02*
X0048452Y0034137D01*
X0048202Y0034137D02*
X0048953Y0034137D01*
X0048953Y0033637D02*
X0048953Y0035138D01*
X0048202Y0035138D01*
X0047952Y0034888D01*
X0047952Y0034387D01*
X0048202Y0034137D01*
X0050899Y0035138D02*
X0051899Y0035138D01*
X0051399Y0035138D02*
X0051399Y0033637D01*
X0053845Y0033887D02*
X0054095Y0033637D01*
X0054596Y0033637D01*
X0054846Y0033887D01*
X0054846Y0034888D01*
X0054596Y0035138D01*
X0054095Y0035138D01*
X0053845Y0034888D01*
X0056792Y0035138D02*
X0057792Y0035138D01*
X0057792Y0033637D01*
X0056792Y0033637D01*
X0057292Y0034387D02*
X0057792Y0034387D01*
X0059738Y0033637D02*
X0060739Y0033637D01*
X0060739Y0035138D01*
X0062685Y0035138D02*
X0063685Y0035138D01*
X0063685Y0033637D01*
X0062685Y0033637D01*
X0063185Y0034387D02*
X0063685Y0034387D01*
M02*
