%
M48
M72
T01C0.0236
T02C0.0315
T03C0.0374
T04C0.0440
T05C0.0906
%
T01
X3196Y1780
X4133Y6701
X5114Y7217
X5208Y7701
X4822Y9134
X5011Y9678
X5122Y10717
X5570Y11863
X5141Y13091
X4177Y13335
X6637Y12764
X7425Y12764
X8212Y12764
X9000Y12764
X9787Y12764
X11322Y14335
X11677Y12737
X11677Y11949
X11677Y11162
X11677Y10374
X11677Y9587
X11677Y8800
X11677Y8012
X11677Y7225
X11677Y6437
X11677Y5650
X11677Y4863
X11677Y4075
X11677Y3288
X11677Y2500
X11677Y1713
X6905Y8107
X6602Y9989
X2145Y9993
X9874Y16473
T02
X1393Y9056
X1393Y8056
X1393Y7056
X1393Y6056
X1393Y5056
X1393Y4056
X1393Y3056
X1393Y2056
X8393Y4056
X8393Y5056
X8393Y6056
X8393Y7056
X8393Y8056
X8393Y9056
X8393Y3056
X8393Y2056
T03
X3496Y5229
X4480Y5229
X5267Y5229
X6251Y5229
T04
X6007Y15804
X5007Y15804
X4007Y15804
X3007Y15804
X2007Y15804
X1007Y15804
T05
X2287Y4162
X7460Y4162
M30
